<svg width="350" height="497" viewBox="0 0 350 497" fill="none" xmlns="http://www.w3.org/2000/svg">
<g clip-path="url(#clip0_2126_535)">
<path d="M146.678 -58V59.6999C146.678 68.5893 153.884 75.7956 162.774 75.7956H276.45C285.339 75.7956 292.545 83.0019 292.545 91.8913V205.567C292.545 214.457 299.752 221.663 308.641 221.663H422.317C431.206 221.663 438.413 228.869 438.413 237.759V351.435C438.413 360.324 445.619 367.53 454.509 367.53H568.184C577.074 367.53 584.28 374.737 584.28 383.626V497.302C584.28 506.191 591.487 513.398 600.376 513.398H718.076M0.810547 -58V59.6999C0.810547 68.5893 8.01684 75.7956 16.9063 75.7956H130.582C139.472 75.7956 146.678 83.0019 146.678 91.8913V205.567C146.678 214.457 153.884 221.663 162.774 221.663H276.45C285.339 221.663 292.545 228.869 292.545 237.759V351.435C292.545 360.324 285.339 367.53 276.45 367.53H162.774C153.884 367.53 146.678 360.324 146.678 351.435V235.747L146.537 234.796C145.457 227.506 139.269 222.062 131.9 221.921L118.51 221.663H16.9063C8.01684 221.663 0.810547 228.869 0.810547 237.759V351.435C0.810547 360.324 8.01684 367.53 16.9063 367.53H131.588L135.409 367.785C141.75 368.208 146.678 373.475 146.678 379.83V392.177M146.678 379.602V497.302C146.678 506.192 153.884 513.398 162.774 513.398H276.45C285.339 513.398 292.545 520.604 292.545 529.494V643.169C292.545 652.059 299.752 659.265 308.641 659.265H422.317C431.206 659.265 438.413 666.471 438.413 675.361V789.037C438.413 797.926 445.619 805.133 454.509 805.133H568.184C577.074 805.133 584.28 812.339 584.28 821.228V934.904C584.28 943.794 591.487 951 600.376 951H718.076" stroke="url(#paint0_linear_2126_535)" stroke-width="1.50897"/>
</g>
<defs>
<linearGradient id="paint0_linear_2126_535" x1="0.810547" y1="-58" x2="701.98" y2="809.66" gradientUnits="userSpaceOnUse">
<stop stop-color="#F7F7F7"/>
<stop offset="0.158505" stop-color="#D1AC54"/>
<stop offset="0.412051" stop-color="#012651"/>
</linearGradient>
<clipPath id="clip0_2126_535">
<rect width="350" height="497" fill="white"/>
</clipPath>
</defs>
</svg>
