<svg width="823" height="361" viewBox="0 0 823 361" fill="none" xmlns="http://www.w3.org/2000/svg">
<g opacity="0.3">
<path d="M768.284 282.441C758.115 268.53 740.887 261.229 718.325 260.027C695.765 258.825 667.938 263.727 636.684 274.141C574.182 294.97 498.081 337.816 423.212 397.754C348.342 457.692 288.915 523.348 253.351 581.028C235.568 609.871 223.766 636.695 218.972 659.796C214.177 682.9 216.402 702.211 226.572 716.123C236.741 730.034 253.969 737.335 276.531 738.537C299.091 739.739 326.919 734.837 358.172 724.422C420.674 703.594 496.776 660.748 571.645 600.809C646.514 540.871 705.942 475.216 741.505 417.535C759.288 388.693 771.09 361.869 775.884 338.768C780.679 315.664 778.454 296.353 768.284 282.441Z" stroke="url(#paint0_linear_2129_241)"/>
<path d="M765.12 278.201C754.683 264.507 737.288 257.532 714.652 256.734C692.019 255.935 664.213 261.317 633.07 272.26C570.786 294.144 495.257 338.229 421.262 399.339C347.268 460.45 288.851 526.988 254.214 585.149C236.894 614.231 225.535 641.194 221.134 664.32C216.733 687.448 219.3 706.668 229.737 720.363C240.173 734.057 257.568 741.032 280.204 741.83C302.837 742.628 330.643 737.246 361.787 726.304C424.07 704.42 499.599 660.335 573.593 599.225C647.588 538.114 706.005 471.576 740.642 413.415C757.962 384.333 769.321 357.37 773.722 334.244C778.124 311.116 775.556 291.895 765.12 278.201Z" stroke="url(#paint1_linear_2129_241)"/>
<path d="M761.873 274.028C751.173 260.555 733.615 253.907 710.913 253.513C688.213 253.119 660.436 258.981 629.412 270.448C567.366 293.381 492.434 338.691 419.337 400.955C346.239 463.219 288.851 530.619 255.151 589.242C238.3 618.556 227.386 645.65 223.379 668.793C219.372 691.938 222.283 711.062 232.983 724.535C243.682 738.008 261.24 744.656 283.942 745.05C306.642 745.444 334.418 739.582 365.443 728.116C427.488 705.183 502.421 659.873 575.518 597.609C648.615 535.345 706.004 467.944 739.704 409.321C756.555 380.008 767.469 352.913 771.476 329.77C775.483 306.625 772.573 287.501 761.873 274.028Z" stroke="url(#paint2_linear_2129_241)"/>
<path d="M758.546 269.924C747.586 256.677 729.871 250.358 707.109 250.368C684.349 250.378 656.611 256.718 625.715 268.706C563.926 292.679 489.612 339.201 417.434 402.6C345.257 465.998 288.915 534.241 256.162 593.309C239.785 622.844 229.319 650.061 225.708 673.215C222.096 696.371 225.349 715.393 236.309 728.64C247.269 741.886 264.983 748.205 287.745 748.195C310.505 748.186 338.244 741.845 369.14 729.858C430.928 705.884 505.242 659.362 577.419 595.964C649.597 532.565 705.94 464.322 738.692 405.255C755.07 375.719 765.535 348.502 769.146 325.348C772.758 302.193 769.506 283.171 758.546 269.924Z" stroke="url(#paint3_linear_2129_241)"/>
<path d="M755.14 265.89C743.922 252.873 726.056 246.885 703.241 247.299C680.429 247.713 652.737 254.529 621.979 267.034C560.466 292.042 486.794 339.761 415.558 404.274C344.321 468.788 289.042 537.853 257.247 597.347C241.348 627.096 231.335 654.427 228.121 677.584C224.906 700.743 228.498 719.658 239.715 732.675C250.932 745.692 268.799 751.679 291.613 751.265C314.426 750.851 342.118 744.036 372.876 731.531C434.388 706.523 508.061 658.803 579.297 594.289C650.533 529.775 705.813 460.712 737.608 401.218C753.506 371.469 763.52 344.137 766.734 320.981C769.949 297.821 766.357 278.907 755.14 265.89Z" stroke="url(#paint4_linear_2129_241)"/>
<path d="M751.656 261.926C740.185 249.142 722.172 243.488 699.312 244.306C676.454 245.124 648.817 252.414 618.206 265.432C556.988 291.467 483.979 340.369 413.706 405.978C343.433 471.588 289.234 541.452 258.406 601.354C242.991 631.307 233.432 658.744 230.615 681.897C227.798 705.053 231.73 723.854 243.201 736.637C254.672 749.421 272.684 755.076 295.545 754.258C318.403 753.44 346.04 746.149 376.651 733.131C437.869 707.096 510.877 658.195 581.15 592.586C651.423 526.976 705.623 457.112 736.451 397.209C751.866 367.256 761.425 339.819 764.241 316.666C767.058 293.51 763.126 274.71 751.656 261.926Z" stroke="url(#paint5_linear_2129_241)"/>
<path d="M748.092 258.035C736.371 245.489 718.219 240.169 695.319 241.391C672.422 242.613 644.848 250.374 614.394 263.901C553.489 290.955 481.167 341.025 411.879 407.71C342.59 474.395 289.487 545.038 259.635 605.33C244.709 635.479 235.608 663.014 233.19 686.156C230.772 709.301 235.042 727.982 246.763 740.528C258.484 753.074 276.636 758.394 299.536 757.172C322.433 755.951 350.007 748.19 380.461 734.662C441.366 707.608 513.688 657.538 582.977 590.853C652.265 524.168 705.368 453.525 735.22 393.233C750.146 363.085 759.247 335.549 761.665 312.407C764.083 289.262 759.813 270.581 748.092 258.035Z" stroke="url(#paint6_linear_2129_241)"/>
<path d="M744.454 254.218C732.487 241.912 714.198 236.929 691.267 238.554C668.338 240.18 640.836 248.41 610.548 262.443C549.975 290.507 478.361 341.73 410.078 409.47C341.796 477.21 289.805 548.611 260.939 609.275C246.505 639.609 237.865 667.233 235.847 690.357C233.827 713.484 238.435 732.04 250.402 744.346C262.37 756.65 280.658 761.634 303.589 760.009C326.517 758.383 354.02 750.153 384.308 736.121C444.881 708.057 516.496 656.833 584.778 589.093C653.061 521.353 705.051 449.953 733.917 389.289C748.351 358.954 756.99 331.33 759.009 308.206C761.028 285.079 756.422 266.523 744.454 254.218Z" stroke="url(#paint7_linear_2129_241)"/>
<path d="M740.74 250.474C728.529 238.414 710.111 233.769 687.155 235.797C664.201 237.825 636.779 246.523 606.666 261.057C546.444 290.123 475.559 342.482 408.303 411.256C341.048 480.031 290.186 552.168 262.314 613.185C248.378 643.696 240.201 671.401 238.582 694.5C236.963 717.602 241.905 736.028 254.115 748.088C266.326 760.148 284.744 764.794 307.7 762.766C330.654 760.737 358.075 752.04 388.189 737.506C448.411 708.44 519.296 656.08 586.552 587.306C653.808 518.531 704.669 446.395 732.54 385.378C746.477 354.867 754.654 327.162 756.273 304.062C757.892 280.96 752.95 262.534 740.74 250.474Z" stroke="url(#paint8_linear_2129_241)"/>
<path d="M736.951 246.808C724.501 234.996 705.959 230.69 682.985 233.121C660.014 235.551 632.68 244.712 602.752 259.742C542.898 289.801 472.764 343.283 406.555 413.071C340.347 482.859 290.629 555.709 263.761 617.061C250.325 647.739 242.614 675.517 241.396 698.585C240.177 721.655 245.453 739.945 257.903 751.756C270.353 763.567 288.895 767.873 311.869 765.443C334.84 763.012 362.174 753.851 392.103 738.82C451.956 708.761 522.09 655.28 588.298 585.492C654.507 515.704 704.225 442.853 731.094 381.501C744.529 350.824 752.239 323.046 753.458 299.979C754.677 276.909 749.401 258.62 736.951 246.808Z" stroke="url(#paint9_linear_2129_241)"/>
<path d="M733.09 243.217C720.405 231.658 701.744 227.692 678.759 230.525C655.777 233.357 628.541 242.98 598.805 258.502C539.339 289.545 469.978 344.13 404.837 414.911C339.695 485.691 291.137 559.233 265.279 620.901C252.35 651.737 245.107 679.578 244.289 702.607C243.471 725.638 249.079 743.786 261.765 755.345C274.451 766.905 293.111 770.87 316.096 768.038C339.078 765.206 366.314 755.583 396.05 740.061C455.517 709.018 524.878 654.432 590.019 583.651C655.16 512.871 703.718 439.33 729.576 377.662C742.505 346.826 749.748 318.984 750.566 295.956C751.384 272.925 745.776 254.777 733.09 243.217Z" stroke="url(#paint10_linear_2129_241)"/>
<path d="M729.157 239.706C716.239 228.402 697.466 224.778 674.477 228.011C651.491 231.243 624.36 241.325 594.827 257.334C535.765 289.351 467.199 345.026 403.145 416.777C339.091 488.528 291.706 562.739 266.867 624.704C254.447 655.688 247.674 683.585 247.257 706.568C246.841 729.553 252.78 747.553 265.698 758.857C278.615 770.161 297.387 773.785 320.376 770.552C343.362 767.32 370.494 757.238 400.027 741.229C459.089 709.211 527.656 653.537 591.71 581.786C655.764 510.035 703.148 435.824 727.987 373.859C740.407 342.875 747.179 314.978 747.596 291.995C748.012 269.01 742.074 251.01 729.157 239.706Z" stroke="url(#paint11_linear_2129_241)"/>
<path d="M725.154 236.273C712.009 225.228 693.129 221.947 670.144 225.579C647.161 229.212 620.142 239.748 590.821 256.24C532.182 289.222 464.431 345.968 401.483 418.668C338.536 491.368 292.339 566.225 268.527 628.468C256.62 659.592 250.321 687.536 250.305 710.466C250.29 733.398 256.556 751.246 269.702 762.291C282.847 773.336 301.728 776.616 324.713 772.984C347.696 769.351 374.715 758.815 404.036 742.323C462.675 709.341 530.426 652.595 593.374 579.895C656.321 507.195 702.518 432.338 726.33 370.095C738.237 338.971 744.536 311.027 744.552 288.097C744.567 265.165 738.3 247.318 725.154 236.273Z" stroke="url(#paint12_linear_2129_241)"/>
<path d="M721.082 232.92C707.712 222.137 688.731 219.2 665.755 223.231C642.783 227.262 615.887 238.251 586.786 255.22C528.588 289.157 461.671 346.957 399.85 420.584C338.028 494.211 293.035 569.691 270.257 632.193C258.867 663.447 253.04 691.429 253.426 714.298C253.812 737.17 260.406 754.86 273.775 765.643C287.145 776.425 306.126 779.363 329.102 775.331C352.074 771.301 378.971 760.312 408.071 743.342C466.269 709.406 533.185 651.606 595.007 577.98C656.829 504.353 701.822 428.872 724.601 366.369C735.991 335.116 741.817 307.134 741.431 284.264C741.046 261.392 734.451 243.702 721.082 232.92Z" stroke="url(#paint13_linear_2129_241)"/>
<path d="M716.94 229.649C703.35 219.132 684.273 216.54 661.315 220.968C638.36 225.397 611.593 236.834 582.722 254.275C524.982 289.156 458.922 347.991 398.245 422.523C337.568 497.054 293.791 573.136 272.053 635.879C261.184 667.252 255.834 695.264 256.621 718.067C257.407 740.872 264.326 758.398 277.916 768.915C291.505 779.432 310.582 782.024 333.54 777.595C356.496 773.167 383.262 761.73 412.134 744.289C469.873 709.408 535.933 650.571 596.61 576.04C657.287 501.509 701.065 425.428 722.802 362.685C733.672 331.312 739.021 303.3 738.235 280.497C737.448 257.692 730.529 240.166 716.94 229.649Z" stroke="url(#paint14_linear_2129_241)"/>
<path d="M712.731 226.459C698.926 216.211 679.759 213.964 656.825 218.788C633.894 223.613 607.265 235.495 578.632 253.404C521.369 289.218 456.184 349.073 396.67 424.486C337.157 499.899 294.609 576.557 273.919 639.521C263.573 671.005 258.701 699.039 259.888 721.767C261.076 744.498 268.318 761.856 282.123 772.104C295.929 782.352 315.095 784.599 338.028 779.774C360.96 774.95 387.589 763.067 416.222 745.159C473.485 709.344 538.669 649.49 598.183 574.077C657.697 498.664 700.245 422.006 720.935 359.042C731.281 327.558 736.153 299.524 734.966 276.795C733.778 254.065 726.536 236.707 712.731 226.459Z" stroke="url(#paint15_linear_2129_241)"/>
<path d="M708.457 223.352C694.441 213.376 675.19 211.476 652.287 216.695C629.387 221.914 602.904 234.238 574.518 252.608C517.749 289.345 453.46 350.2 395.128 426.471C336.795 502.743 295.49 579.955 275.853 643.121C266.034 674.706 261.642 702.752 263.23 725.4C264.818 748.05 272.38 765.233 286.397 775.21C300.414 785.186 319.665 787.087 342.567 781.867C365.467 776.649 391.95 764.325 420.336 745.955C477.105 709.218 541.394 648.363 599.726 572.092C658.058 495.82 699.364 418.608 719.001 355.442C728.82 323.857 733.213 295.81 731.625 273.162C730.037 250.512 722.474 233.329 708.457 223.352Z" stroke="url(#paint16_linear_2129_241)"/>
<path d="M704.12 220.33C689.895 210.629 670.566 209.076 647.702 214.688C624.84 220.3 598.512 233.061 570.381 251.887C514.123 289.535 450.749 351.372 393.616 428.479C336.482 505.586 296.432 583.329 277.855 646.678C268.566 678.354 264.654 706.404 266.642 728.964C268.63 751.526 276.511 768.531 290.735 778.232C304.959 787.934 324.288 789.487 347.153 783.875C370.015 778.263 396.343 765.501 424.474 746.676C480.732 709.027 544.105 647.191 601.238 570.084C658.372 492.977 698.422 415.233 716.999 351.885C726.288 320.209 730.2 292.159 728.212 269.599C726.224 247.036 718.344 230.032 704.12 220.33Z" stroke="url(#paint17_linear_2129_241)"/>
<path d="M699.719 217.393C685.292 207.97 665.89 206.764 643.071 212.767C620.254 218.77 594.088 231.966 566.221 251.242C510.491 289.791 448.053 352.589 392.136 430.508C336.219 508.427 297.436 586.677 279.925 650.189C271.168 681.946 267.738 709.993 270.125 732.458C272.512 754.926 280.708 771.746 295.136 781.17C309.563 790.593 328.965 791.799 351.784 785.795C374.601 779.792 400.767 766.597 428.634 747.321C484.364 708.772 546.802 645.973 602.719 568.054C658.636 490.136 697.419 411.886 714.931 348.374C723.687 316.616 727.118 288.57 724.731 266.104C722.343 243.637 714.147 226.817 699.719 217.393Z" stroke="url(#paint18_linear_2129_241)"/>
<path d="M695.256 214.542C680.63 205.399 661.162 204.541 638.395 210.934C615.63 217.326 589.634 230.951 562.04 250.671C506.855 290.108 445.37 353.851 390.687 432.558C336.003 511.265 298.499 589.998 282.058 653.654C273.837 685.484 270.89 713.517 273.676 735.881C276.462 758.247 284.972 774.878 299.598 784.021C314.224 793.163 333.692 794.021 356.459 787.628C379.224 781.236 405.22 767.611 432.814 747.891C487.999 708.454 549.483 644.711 604.166 566.004C658.85 487.297 696.354 408.564 712.795 344.908C721.016 313.078 723.963 285.045 721.178 262.681C718.392 240.315 709.882 223.685 695.256 214.542Z" stroke="url(#paint19_linear_2129_241)"/>
<path d="M690.734 211.778C675.913 202.918 656.385 202.408 633.677 209.189C610.971 215.969 585.152 230.02 557.839 250.178C503.216 290.491 442.705 355.158 389.272 434.629C335.839 514.1 299.625 593.292 284.259 657.072C276.576 688.964 274.113 716.977 277.297 739.232C280.48 761.49 289.301 777.927 304.121 786.786C318.942 795.645 338.471 796.155 361.179 789.375C383.885 782.595 409.702 768.543 437.015 748.385C491.638 708.072 552.15 643.405 605.583 563.933C659.016 484.462 695.23 405.271 710.595 341.491C718.278 309.599 720.742 281.587 717.559 259.331C714.375 237.074 705.555 220.637 690.734 211.778Z" stroke="url(#paint20_linear_2129_241)"/>
<path d="M686.152 209.1C671.141 200.527 651.558 200.365 628.916 207.531C606.276 214.696 580.645 229.17 553.621 249.76C499.576 290.937 440.056 356.509 387.889 436.72C335.722 516.931 300.81 596.558 286.525 660.443C279.382 692.387 277.403 720.369 280.983 742.51C284.564 764.652 293.692 780.89 308.703 789.463C323.713 798.036 343.297 798.197 365.939 791.031C388.579 783.866 414.211 769.393 441.234 748.804C495.278 707.626 554.799 642.055 606.966 561.844C659.133 481.633 694.044 402.006 708.33 338.12C715.473 306.176 717.453 278.194 713.872 256.053C710.292 233.91 701.163 217.674 686.152 209.1Z" stroke="url(#paint21_linear_2129_241)"/>
<path d="M681.513 206.512C666.317 198.228 646.685 198.414 624.116 205.963C601.549 213.511 576.11 228.402 549.384 249.418C495.935 291.446 437.424 357.902 386.539 438.828C335.655 519.755 302.055 599.792 288.855 663.763C282.254 695.751 280.759 723.694 284.735 745.713C288.712 767.734 298.146 783.767 313.342 792.051C328.539 800.336 348.17 800.149 370.739 792.6C393.306 785.052 418.745 770.161 445.471 749.145C498.92 707.117 557.432 640.66 608.316 559.734C659.2 478.808 692.8 398.771 706 334.8C712.601 302.812 714.096 274.868 710.12 252.849C706.143 230.829 696.709 214.797 681.513 206.512Z" stroke="url(#paint22_linear_2129_241)"/>
<path d="M676.818 204.013C661.441 196.02 641.766 196.555 619.277 204.484C596.79 212.414 571.553 227.717 545.133 249.152C492.295 292.019 434.81 359.339 385.224 440.956C335.637 522.573 303.36 602.998 291.249 667.035C285.192 699.055 284.183 726.952 288.553 748.842C292.924 770.734 302.661 786.557 318.038 794.55C333.415 802.543 353.089 802.008 375.578 794.078C398.066 786.149 423.303 770.847 449.723 749.412C502.561 706.545 560.046 639.224 609.632 557.606C659.219 475.989 691.496 395.566 703.608 331.529C709.664 299.508 710.673 271.612 706.302 249.721C701.931 227.829 692.195 212.006 676.818 204.013Z" stroke="url(#paint23_linear_2129_241)"/>
<path d="M672.068 201.603C656.515 193.904 636.803 194.787 614.401 203.096C592 211.403 566.972 227.114 540.865 248.962C488.655 292.654 432.215 360.818 383.941 443.101C335.668 525.385 304.723 606.17 293.703 670.254C288.193 702.298 287.671 730.139 292.434 751.895C297.198 773.651 307.234 789.261 322.787 796.96C338.341 804.659 358.052 803.776 380.454 795.468C402.855 787.16 427.883 771.449 453.989 749.601C506.2 705.908 562.64 637.744 610.914 555.461C659.187 473.178 690.132 392.393 701.151 328.309C706.661 296.265 707.185 268.424 702.421 246.669C697.657 224.912 687.621 209.303 672.068 201.603Z" stroke="url(#paint24_linear_2129_241)"/>
<path d="M667.264 199.285C651.539 191.881 631.797 193.113 609.488 201.797C587.181 210.48 562.37 226.594 536.585 248.848C485.018 293.353 429.64 362.34 382.694 445.264C335.748 528.188 306.145 609.31 296.221 673.421C291.259 705.478 291.221 733.256 296.377 754.87C301.533 776.484 311.865 791.874 327.59 799.277C343.315 806.681 363.057 805.45 385.366 796.766C407.674 788.083 432.485 771.968 458.27 749.715C509.837 705.21 565.215 636.222 612.161 553.298C659.106 470.374 688.71 389.252 698.634 325.141C703.596 293.084 703.633 265.307 698.477 243.693C693.322 222.079 682.989 206.688 667.264 199.285Z" stroke="url(#paint25_linear_2129_241)"/>
<path d="M662.409 197.058C646.518 189.953 626.751 191.531 604.542 200.589C582.335 209.646 557.748 226.158 532.293 248.811C481.385 294.115 427.086 363.904 381.482 447.444C335.878 530.984 307.625 612.418 298.8 676.537C294.387 708.597 294.836 736.302 300.382 757.767C305.927 779.233 316.553 794.401 332.445 801.506C348.336 808.611 368.104 807.031 390.312 797.974C412.52 788.917 437.106 772.405 462.561 749.752C513.469 704.449 567.768 634.659 613.372 551.12C658.976 467.58 687.229 386.145 696.054 322.027C700.467 289.966 700.018 262.261 694.473 240.796C688.927 219.33 678.301 204.163 662.409 197.058Z" stroke="url(#paint26_linear_2129_241)"/>
<path d="M657.505 194.923C641.451 188.118 621.665 190.044 599.564 199.472C577.463 208.9 553.109 225.805 527.991 248.85C477.758 294.939 424.553 365.508 380.305 449.638C336.057 533.768 309.164 615.49 301.44 679.597C297.578 711.652 298.512 739.276 304.447 760.586C310.381 781.897 321.296 796.836 337.35 803.64C353.404 810.445 373.19 808.519 395.291 799.091C417.391 789.663 441.746 772.758 466.864 749.713C517.097 703.624 570.302 633.054 614.55 548.924C658.798 464.794 685.691 383.073 693.415 318.966C697.277 286.911 696.342 259.287 690.408 237.977C684.474 216.666 673.558 201.727 657.505 194.923Z" stroke="url(#paint27_linear_2129_241)"/>
<path d="M652.551 192.88C636.34 186.378 616.541 188.651 594.554 198.447C572.567 208.242 548.452 225.535 523.679 248.966C474.136 295.825 422.042 367.153 379.163 451.848C336.285 536.542 310.759 618.528 304.139 682.603C300.829 714.642 302.249 742.176 308.57 763.324C314.891 784.474 326.093 799.181 342.304 805.683C358.515 812.184 378.314 809.912 400.302 800.116C422.288 790.321 446.403 773.028 471.176 749.597C520.719 702.738 572.813 631.409 615.692 546.714C658.57 462.02 684.096 380.035 690.715 315.96C694.025 283.921 692.606 256.387 686.286 235.239C679.965 214.089 668.762 199.382 652.551 192.88Z" stroke="url(#paint28_linear_2129_241)"/>
<path d="M647.55 190.932C631.186 184.734 611.38 187.353 589.513 197.513C567.647 207.673 543.779 225.349 519.359 249.158C470.52 296.773 419.554 368.84 378.058 454.073C336.562 539.306 312.411 621.529 306.897 685.553C304.14 717.566 306.044 745.003 312.75 765.983C319.455 786.965 330.942 801.435 347.305 807.632C363.668 813.829 383.473 811.21 405.341 801.05C427.207 790.89 451.075 773.215 475.496 749.406C524.334 701.79 575.301 629.723 616.797 544.49C658.293 459.257 682.443 377.035 687.957 313.011C690.715 280.997 688.809 253.561 682.104 232.58C675.398 211.598 663.913 197.129 647.55 190.932Z" stroke="url(#paint29_linear_2129_241)"/>
<path d="M642.502 189.076C625.992 183.186 606.186 186.149 584.446 196.671C562.706 207.192 539.092 225.246 515.032 249.426C466.913 297.783 417.09 370.565 376.989 456.311C336.887 542.057 314.12 624.492 309.713 688.445C307.51 720.423 309.898 747.754 316.986 768.561C324.075 789.368 335.841 803.596 352.351 809.486C368.862 815.377 388.668 812.413 410.408 801.892C432.147 791.37 455.762 773.317 479.823 749.137C527.941 700.78 577.764 627.998 617.866 542.252C657.967 456.506 680.735 374.071 685.141 310.118C687.345 278.139 684.955 250.808 677.867 230.002C670.779 209.195 659.013 194.967 642.502 189.076Z" stroke="url(#paint30_linear_2129_241)"/>
<path d="M637.413 187.316C620.759 181.734 600.959 185.042 579.353 195.922C557.747 206.802 534.393 225.226 510.7 249.77C463.316 298.854 414.651 372.33 375.957 458.562C337.263 544.795 315.884 627.417 312.586 691.28C310.937 723.213 313.811 750.43 321.28 771.056C328.748 791.683 340.79 805.665 357.444 811.247C374.097 816.83 393.897 813.522 415.504 802.642C437.109 791.762 460.462 773.336 484.156 748.793C531.54 699.708 580.205 626.233 618.899 540C657.593 453.768 678.971 371.145 682.269 307.282C683.918 275.349 681.045 248.133 673.577 227.507C666.108 206.881 654.066 192.899 637.413 187.316Z" stroke="url(#paint31_linear_2129_241)"/>
<path d="M632.279 185.651C615.488 180.379 595.699 184.03 574.233 195.265C552.767 206.5 529.682 225.291 506.363 250.191C459.728 299.987 412.236 374.134 374.961 460.826C337.686 547.519 317.704 630.303 315.515 694.057C314.421 725.935 317.778 753.029 325.624 773.468C333.471 793.908 345.787 807.64 362.577 812.912C379.368 818.184 399.157 814.533 420.622 803.298C442.088 792.063 465.173 773.272 488.492 748.372C535.127 698.575 582.62 624.429 619.895 537.737C657.17 451.044 677.152 368.26 679.34 304.506C680.434 272.627 677.077 245.534 669.231 225.095C661.384 204.655 649.069 190.923 632.279 185.651Z" stroke="url(#paint32_linear_2129_241)"/>
<path d="M627.103 184.081C610.181 179.12 590.408 183.114 569.089 194.7C547.77 206.287 524.961 225.439 502.024 250.687C456.152 301.181 409.846 375.975 374.002 463.101C338.157 550.228 319.577 633.15 318.5 696.775C317.961 728.589 321.798 755.551 330.021 775.797C338.244 796.043 350.828 809.522 367.751 814.482C384.674 819.443 404.446 815.449 425.765 803.863C447.083 792.276 469.893 773.125 492.831 747.876C538.702 697.382 585.008 622.587 620.852 535.461C656.697 448.334 675.277 365.413 676.355 301.789C676.893 269.975 673.055 243.012 664.833 222.766C656.61 202.52 644.026 189.041 627.103 184.081Z" stroke="url(#paint33_linear_2129_241)"/>
<path d="M621.89 182.607C604.84 177.959 585.09 182.294 563.924 194.229C542.759 206.163 520.232 225.669 497.683 251.259C452.589 302.434 407.485 377.854 373.081 465.388C338.678 552.922 321.506 635.955 321.539 699.431C321.555 731.171 325.874 757.995 334.47 778.041C343.066 798.088 355.916 811.308 372.966 815.955C390.016 820.603 409.765 816.268 430.93 804.334C452.095 792.399 474.623 772.893 497.171 747.304C542.266 696.128 587.37 620.708 621.773 533.174C656.177 445.64 673.349 362.607 673.316 299.131C673.299 267.391 668.981 240.567 660.385 220.521C651.789 200.474 638.939 187.254 621.89 182.607Z" stroke="url(#paint34_linear_2129_241)"/>
<path d="M616.637 181.23C599.465 176.897 579.745 181.572 558.74 193.851C537.734 206.13 515.496 225.985 493.343 251.907C449.039 303.749 405.15 379.771 372.199 467.685C339.247 555.6 323.487 638.72 324.631 702.028C325.203 733.684 330.001 760.361 338.968 780.202C347.935 800.043 361.045 813.001 378.217 817.334C395.389 821.666 415.109 816.992 436.115 804.713C457.12 792.434 479.359 772.579 501.512 746.657C545.816 694.815 589.705 618.792 622.656 530.878C655.608 442.963 671.367 359.844 670.223 296.535C669.651 264.879 664.853 238.203 655.887 218.362C646.92 198.521 633.809 185.563 616.637 181.23Z" stroke="url(#paint35_linear_2129_241)"/>
<path d="M611.349 179.949C594.06 175.933 574.376 180.946 553.537 193.565C532.697 206.185 510.755 226.382 489.004 252.63C445.505 305.122 402.844 381.723 371.355 469.992C339.865 558.26 325.523 641.442 327.777 704.563C328.904 736.125 334.18 762.646 343.515 782.276C352.849 801.906 366.217 814.597 383.506 818.614C400.795 822.63 420.48 817.618 441.319 804.998C462.159 792.378 484.101 772.181 505.852 745.934C549.351 693.442 592.012 616.84 623.502 528.571C654.991 440.302 669.333 357.122 667.079 294C665.952 262.438 660.676 235.917 651.341 216.287C642.007 196.658 628.638 183.966 611.349 179.949Z" stroke="url(#paint36_linear_2129_241)"/>
<path d="M606.027 178.766C588.626 175.067 568.984 180.417 548.317 193.373C527.65 206.33 506.01 226.863 484.668 253.428C441.987 306.554 400.567 383.712 370.548 472.307C340.53 560.903 327.611 644.12 330.975 707.035C332.657 738.494 338.409 764.851 348.109 784.263C357.808 803.676 371.43 816.097 388.83 819.796C406.231 823.495 425.873 818.146 446.54 805.189C467.207 792.233 488.847 771.699 510.189 745.135C552.87 692.009 594.29 614.851 624.309 526.255C654.327 437.66 667.246 354.443 663.882 291.528C662.2 260.068 656.448 233.711 646.748 214.299C637.049 194.887 623.427 182.466 606.027 178.766Z" stroke="url(#paint37_linear_2129_241)"/>
<path d="M600.67 177.681C583.163 174.3 563.567 179.985 543.079 193.274C522.591 206.564 501.26 227.428 480.334 254.301C438.483 308.045 398.317 385.735 369.779 474.631C341.241 563.526 329.748 646.754 334.221 709.444C336.457 740.79 342.684 766.976 352.746 786.165C362.807 805.353 376.678 817.501 394.185 820.882C411.692 824.263 431.287 818.577 451.774 805.288C472.263 791.999 493.594 771.135 514.521 744.262C556.372 690.517 596.537 612.827 625.075 523.931C653.613 435.036 665.106 351.809 660.634 289.119C658.397 257.773 652.17 231.587 642.108 212.398C632.046 193.209 618.176 181.062 600.67 177.681Z" stroke="url(#paint38_linear_2129_241)"/>
<path d="M595.282 176.694C577.674 173.632 558.133 179.651 537.83 193.269C517.527 206.887 496.512 228.075 476.007 255.25C434.999 309.596 396.1 387.794 369.051 476.963C342.003 566.131 331.939 649.343 337.519 711.788C340.309 743.013 347.008 769.019 357.429 787.979C367.849 806.938 381.965 818.808 399.573 821.869C417.181 824.93 436.723 818.912 457.026 805.294C477.329 791.676 498.344 770.488 518.849 743.313C559.856 688.967 598.756 610.769 625.804 521.601C652.853 432.432 662.916 349.22 657.337 286.775C654.547 255.55 647.848 229.544 637.427 210.584C627.006 191.625 612.89 179.755 595.282 176.694Z" stroke="url(#paint39_linear_2129_241)"/>
<path d="M589.864 175.805C572.16 173.064 552.678 179.414 532.567 193.356C512.455 207.299 491.761 228.805 471.685 256.272C431.533 311.203 393.912 389.887 368.36 479.301C342.809 568.715 334.178 651.887 340.864 714.069C344.206 745.161 351.376 770.98 362.153 789.705C372.929 808.429 387.286 820.018 404.989 822.758C422.693 825.499 442.176 819.149 462.287 805.207C482.399 791.264 503.093 769.758 523.169 742.291C563.321 687.36 600.942 608.677 626.493 519.263C652.045 429.848 660.676 346.676 653.99 284.494C650.648 253.402 643.478 227.583 632.701 208.858C621.925 190.134 607.568 178.545 589.864 175.805Z" stroke="url(#paint40_linear_2129_241)"/>
<path d="M584.419 175.014C566.625 172.594 547.208 179.275 527.294 193.538C507.379 207.801 487.015 229.617 467.372 257.368C428.088 312.867 391.756 392.012 367.71 481.645C343.664 571.277 336.469 654.384 344.258 716.283C348.152 747.234 355.79 772.858 366.92 791.342C378.049 809.825 392.641 821.129 410.435 823.548C428.229 825.968 447.647 819.288 467.561 805.025C487.476 790.762 507.84 768.945 527.483 741.194C566.767 685.695 603.099 606.55 627.145 516.917C651.191 427.285 658.386 344.178 650.597 282.279C646.703 251.328 639.065 225.705 627.935 207.221C616.806 188.737 602.213 177.433 584.419 175.014Z" stroke="url(#paint41_linear_2129_241)"/>
<path d="M578.948 174.322C561.069 172.225 541.722 179.233 522.011 193.812C502.3 208.392 482.271 230.512 463.068 258.539C424.665 314.59 389.633 394.171 367.1 483.995C344.566 573.819 338.809 656.833 347.698 718.431C352.144 749.232 360.246 774.653 371.725 792.891C383.203 811.128 398.029 822.143 415.908 824.241C433.787 826.338 453.133 819.33 472.843 804.751C492.555 790.172 512.585 768.051 531.788 740.024C570.191 683.973 605.223 604.392 627.756 514.568C650.29 424.744 656.048 341.73 647.158 280.132C642.712 249.331 634.608 223.911 623.13 205.673C611.652 187.436 596.827 176.419 578.948 174.322Z" stroke="url(#paint42_linear_2129_241)"/>
<path d="M573.45 173.729C555.491 171.955 536.222 179.289 516.721 194.179C497.219 209.071 477.529 231.488 458.772 259.782C421.261 316.367 387.541 396.361 366.527 486.349C345.513 576.337 341.194 659.235 351.182 720.513C356.176 751.154 364.744 776.363 376.568 794.349C388.392 812.334 403.445 823.059 421.403 824.833C439.362 826.607 458.631 819.273 478.132 804.383C497.634 789.492 517.324 767.074 536.081 738.78C573.592 682.195 607.312 602.201 628.326 512.213C649.34 422.226 653.659 339.327 643.671 278.049C638.677 247.409 630.109 222.2 618.285 204.214C606.461 186.228 591.408 175.504 573.45 173.729Z" stroke="url(#paint43_linear_2129_241)"/>
<path d="M567.93 173.236C549.897 171.785 530.711 179.442 511.426 194.64C492.139 209.838 472.796 232.546 454.491 261.099C417.882 318.201 385.484 398.583 365.996 488.707C346.507 578.831 343.629 661.589 354.712 722.528C360.254 752.999 369.283 777.989 381.45 795.718C393.616 813.446 408.891 823.876 426.923 825.326C444.956 826.777 464.142 819.12 483.428 803.923C502.715 788.724 522.057 766.016 540.362 737.464C576.971 680.361 609.37 599.979 628.858 509.855C648.347 419.731 651.225 336.974 640.141 276.035C634.599 245.564 625.571 220.573 613.404 202.844C601.238 185.116 585.963 174.686 567.93 173.236Z" stroke="url(#paint44_linear_2129_241)"/>
<path d="M562.389 172.842C544.288 171.715 525.19 179.693 506.126 195.193C487.061 210.694 468.071 233.686 450.223 262.489C414.529 320.09 383.461 400.836 365.505 491.069C347.548 581.302 346.111 663.893 358.287 724.475C364.375 754.767 373.861 779.532 386.366 796.998C398.87 814.463 414.364 824.594 432.465 825.721C450.566 826.848 469.664 818.87 488.728 803.37C507.793 787.869 526.784 764.877 544.632 736.075C580.326 678.473 611.394 597.727 629.35 507.494C647.307 417.261 648.744 334.67 636.568 274.089C630.48 243.796 620.993 219.031 608.488 201.565C595.984 184.1 580.49 173.969 562.389 172.842Z" stroke="url(#paint45_linear_2129_241)"/>
<path d="M556.829 172.547C538.665 171.745 519.661 180.042 500.824 195.84C481.986 211.638 463.354 234.906 445.968 263.949C411.199 322.033 381.473 403.119 365.053 493.433C348.634 583.747 348.639 666.146 361.902 726.352C368.535 756.457 378.477 780.988 391.316 798.186C404.155 815.383 419.863 825.214 438.027 826.016C456.191 826.819 475.194 818.521 494.031 802.724C512.87 786.925 531.502 763.656 548.887 734.613C583.656 676.529 613.383 595.444 629.802 505.129C646.221 414.815 646.217 332.416 632.953 272.21C626.321 242.106 616.379 217.575 603.539 200.377C590.701 183.181 574.993 173.35 556.829 172.547Z" stroke="url(#paint46_linear_2129_241)"/>
<path d="M551.249 172.352C533.027 171.874 514.124 180.487 495.52 196.577C476.914 212.669 458.646 236.207 441.729 265.483C407.895 324.031 379.519 405.431 364.641 495.799C349.764 586.167 351.211 668.349 365.559 728.161C372.733 758.068 383.127 782.358 396.297 799.283C409.466 816.207 425.383 825.733 443.605 826.211C461.827 826.688 480.73 818.075 499.334 801.985C517.94 785.893 536.208 762.355 553.125 733.08C586.958 674.531 615.335 593.132 630.212 502.763C645.089 412.395 643.643 330.213 629.295 270.401C622.121 240.494 611.727 216.204 598.557 199.279C585.387 182.356 569.471 172.83 551.249 172.352Z" stroke="url(#paint47_linear_2129_241)"/>
<path d="M545.654 172.256C527.381 172.103 508.584 181.03 490.218 197.408C471.851 213.788 453.952 237.589 437.508 267.088C404.621 326.083 377.602 407.771 364.271 498.166C350.941 588.561 353.829 670.5 369.257 729.9C376.971 759.601 387.814 783.642 401.311 800.288C414.807 816.933 430.927 826.154 449.201 826.307C467.475 826.459 486.272 817.532 504.638 801.153C523.005 784.774 540.903 760.973 557.347 731.475C590.234 672.48 617.253 590.791 630.583 500.396C643.914 410.001 641.026 328.062 625.598 268.663C617.884 238.962 607.042 214.92 593.545 198.273C580.049 181.628 563.928 172.409 545.654 172.256Z" stroke="url(#paint48_linear_2129_241)"/>
<path d="M540.044 172.26C521.723 172.432 503.039 181.671 484.917 198.332C466.794 214.995 449.27 239.051 433.304 268.763C401.373 328.187 375.722 410.141 363.942 500.534C352.162 590.928 356.49 672.6 372.993 731.569C381.244 761.055 392.533 784.84 406.353 801.203C420.171 817.565 436.491 826.474 454.811 826.302C473.132 826.131 491.816 816.892 509.938 800.231C528.061 783.568 545.585 759.513 561.551 729.8C593.482 670.376 619.134 588.422 630.914 498.029C642.694 407.635 638.365 325.963 621.862 266.994C613.61 237.508 602.322 213.723 588.502 197.36C574.684 180.998 558.364 172.089 540.044 172.26Z" stroke="url(#paint49_linear_2129_241)"/>
<path d="M534.422 172.364C516.06 172.861 497.493 182.407 479.62 199.346C461.747 216.287 444.604 240.591 429.121 270.509C398.156 330.343 373.879 412.536 363.653 502.901C353.428 593.266 359.195 674.647 376.768 733.167C385.554 762.429 397.285 785.951 411.423 802.026C425.559 818.099 442.074 826.696 460.435 826.199C478.796 825.702 497.363 816.156 515.235 799.217C533.109 782.276 550.252 757.972 565.736 728.054C596.701 668.22 620.978 586.027 631.204 495.662C641.429 405.297 635.662 323.916 618.089 265.395C609.302 236.134 597.571 212.612 583.433 196.537C569.297 180.464 552.783 171.867 534.422 172.364Z" stroke="url(#paint50_linear_2129_241)"/>
<path d="M528.785 172.567C510.388 173.389 491.944 183.24 474.327 200.452C456.709 217.665 439.952 242.21 424.956 272.324C394.966 332.55 372.07 414.959 363.402 505.267C354.734 595.576 361.939 676.64 380.576 734.694C389.895 763.722 402.065 786.974 416.516 802.755C430.967 818.535 447.67 826.817 466.067 825.996C484.463 825.174 502.908 815.322 520.525 798.11C538.144 780.897 554.901 756.353 569.896 726.238C599.887 666.012 622.782 583.604 631.45 493.296C640.118 402.987 632.913 321.923 614.276 263.868C604.957 234.84 592.788 211.588 578.336 195.807C563.885 180.027 547.181 171.746 528.785 172.567Z" stroke="url(#paint51_linear_2129_241)"/>
<path d="M523.144 172.87C504.718 174.016 486.403 184.17 469.046 201.649C451.688 219.13 435.321 243.907 420.817 274.209C391.811 334.809 370.305 417.407 363.197 507.632C356.089 597.857 364.728 678.579 384.425 736.149C394.273 764.936 406.878 787.91 421.64 803.393C436.4 818.875 453.287 826.839 471.714 825.693C490.14 824.547 508.455 814.392 525.812 796.913C543.17 779.432 559.537 754.655 574.041 724.354C603.046 663.754 624.552 581.156 631.661 490.931C638.769 400.706 630.129 319.983 610.433 262.413C600.584 233.627 587.979 210.652 573.218 195.169C558.458 179.688 541.57 171.724 523.144 172.87Z" stroke="url(#paint52_linear_2129_241)"/>
<path d="M517.491 173.272C499.04 174.743 480.86 185.196 463.769 202.937C446.676 220.681 430.705 245.683 416.698 276.162C388.685 337.117 368.574 419.88 363.028 509.993C357.482 600.107 367.554 680.464 388.304 737.533C398.679 766.068 411.715 788.759 426.782 803.939C441.847 819.117 458.913 826.761 477.364 825.29C495.814 823.82 513.994 813.367 531.086 795.625C548.178 777.882 564.15 752.88 578.157 722.401C606.17 661.445 626.28 578.683 631.826 488.569C637.372 398.456 627.3 318.099 606.551 261.03C596.176 232.494 583.14 209.804 568.073 194.624C553.008 179.445 535.941 171.802 517.491 173.272Z" stroke="url(#paint53_linear_2129_241)"/>
<path d="M511.834 173.774C493.365 175.568 475.325 186.318 458.505 204.316C441.683 222.316 426.112 247.536 412.606 278.183C385.595 339.475 366.886 422.377 362.904 512.352C358.922 602.327 370.423 682.293 392.219 738.844C403.117 767.12 416.58 789.518 431.948 804.391C447.313 819.262 464.554 826.583 483.023 824.789C501.492 822.994 519.531 812.245 536.351 794.247C553.173 776.247 568.744 751.027 582.25 720.38C609.262 659.087 627.971 576.186 631.953 486.211C635.935 396.236 624.433 316.269 602.638 259.719C591.739 231.443 578.276 209.044 562.909 194.172C547.543 179.301 530.303 171.979 511.834 173.774Z" stroke="url(#paint54_linear_2129_241)"/>
<path d="M506.171 174.375C487.689 176.493 469.794 187.535 453.25 205.784C436.704 224.035 421.539 249.465 408.538 280.271C382.537 341.882 365.234 424.898 362.817 514.707C360.4 604.516 373.328 684.066 396.163 740.081C407.582 768.089 421.468 790.19 437.131 804.751C452.792 819.31 470.201 826.306 488.683 824.188C507.164 822.07 525.059 811.028 541.603 792.779C558.149 774.527 573.315 749.097 586.317 718.29C612.318 656.68 629.62 573.665 632.037 483.856C634.454 394.047 621.527 314.495 598.691 258.481C587.273 230.473 573.386 208.373 557.723 193.812C542.061 179.253 524.652 172.257 506.171 174.375Z" stroke="url(#paint55_linear_2129_241)"/>
<path d="M500.508 175.074C482.019 177.515 464.275 188.846 448.012 207.341C431.747 225.839 416.991 251.472 404.499 282.428C379.515 344.338 363.625 427.442 362.774 517.057C361.923 606.672 376.272 685.784 400.141 741.245C412.076 768.977 426.381 790.774 442.335 805.018C458.288 819.26 475.86 825.929 494.349 823.489C512.838 821.048 530.582 809.717 546.845 791.222C563.11 772.724 577.866 747.091 590.358 716.135C615.341 654.225 631.231 571.121 632.082 481.506C632.934 391.891 618.584 312.779 594.716 257.318C582.781 229.586 568.476 207.789 552.521 193.545C536.569 179.303 518.996 172.634 500.508 175.074Z" stroke="url(#paint56_linear_2129_241)"/>
<path d="M494.84 175.872C476.35 178.635 458.762 190.253 442.785 208.988C426.806 227.726 412.465 253.553 400.485 284.649C376.527 346.839 362.054 430.007 362.769 519.401C363.484 608.796 379.251 687.444 404.145 742.336C416.593 769.782 431.312 791.267 447.553 805.19C463.791 819.112 481.522 825.452 500.013 822.69C518.503 819.927 536.09 808.309 552.067 789.574C568.046 770.836 582.387 745.009 594.367 713.913C618.325 651.723 632.798 568.556 632.083 479.161C631.368 389.766 615.601 311.118 590.707 256.227C578.259 228.78 563.54 207.295 547.299 193.372C531.061 179.451 513.331 173.11 494.84 175.872Z" stroke="url(#paint57_linear_2129_241)"/>
<path d="M489.177 176.77C470.691 179.854 453.265 191.754 437.579 210.724C421.891 229.696 407.968 255.709 396.505 286.936C373.58 349.388 360.528 432.594 362.809 521.74C365.09 610.887 382.27 689.049 408.182 743.353C421.139 770.506 436.268 791.673 452.79 805.271C469.309 818.868 487.193 824.877 505.679 821.793C524.165 818.709 541.591 806.809 557.277 787.84C572.966 768.868 586.888 742.854 598.351 711.627C621.276 649.175 634.328 565.97 632.047 476.823C629.766 387.676 612.586 309.515 586.674 255.21C573.717 228.057 558.588 206.89 542.066 193.292C525.547 179.695 507.663 173.686 489.177 176.77Z" stroke="url(#paint58_linear_2129_241)"/>
<path d="M483.515 177.765C465.038 181.17 447.78 193.349 432.39 212.547C416.997 231.748 403.497 257.94 392.554 289.288C370.668 351.982 359.042 435.2 362.888 524.072C366.734 612.943 385.321 690.594 412.243 744.296C425.705 771.147 441.24 791.989 458.038 805.258C474.834 818.525 492.864 824.203 511.341 820.798C529.817 817.394 547.075 805.214 562.466 786.016C577.859 766.815 591.359 740.624 602.302 709.275C624.188 646.581 635.813 563.363 631.967 474.491C628.122 385.62 609.535 307.969 582.612 254.268C569.15 227.416 553.615 206.574 536.817 193.305C520.021 180.038 501.991 174.361 483.515 177.765Z" stroke="url(#paint59_linear_2129_241)"/>
<path d="M477.857 178.858C459.396 182.582 442.311 195.036 427.22 214.457C412.127 233.88 399.055 260.244 388.635 291.704C367.795 354.622 357.598 437.827 363.008 526.396C368.417 614.966 388.407 692.082 416.332 745.163C430.294 771.705 446.23 792.217 463.299 805.153C480.366 818.087 498.538 823.429 516.999 819.705C535.46 815.981 552.545 803.527 567.636 784.106C582.728 764.683 595.802 738.319 606.222 706.859C627.061 643.941 637.257 560.736 631.848 472.167C626.438 383.598 606.449 306.481 578.525 253.4C564.562 226.858 548.626 206.346 531.557 193.41C514.49 180.476 496.318 175.134 477.857 178.858Z" stroke="url(#paint60_linear_2129_241)"/>
<path d="M472.205 180.049C453.765 184.091 436.857 196.816 422.071 216.454C407.283 236.094 394.642 262.621 384.748 294.183C364.961 357.305 356.196 440.472 363.168 528.712C370.14 616.952 391.525 693.511 420.443 745.956C434.902 772.18 451.234 792.354 468.569 804.953C485.902 817.55 504.21 822.556 522.651 818.514C541.091 814.472 557.997 801.746 572.783 782.108C587.571 762.468 600.213 735.943 610.106 704.38C629.893 641.258 638.658 558.091 631.686 469.851C624.714 381.611 603.329 305.053 574.411 252.607C559.952 226.383 543.62 206.208 526.285 193.609C508.953 181.012 490.645 176.007 472.205 180.049Z" stroke="url(#paint61_linear_2129_241)"/>
<path d="M466.56 181.337C448.147 185.696 431.423 198.689 416.947 218.538C402.468 238.389 390.261 265.069 380.897 296.724C362.169 360.031 354.838 443.135 363.371 531.019C371.903 618.903 394.677 694.88 424.58 746.675C439.531 772.572 456.254 792.403 473.849 804.661C491.443 816.917 509.881 821.585 528.295 817.226C546.708 812.867 563.433 799.874 577.909 780.025C592.388 760.174 604.595 733.494 613.959 701.839C632.687 638.532 640.017 555.428 631.484 467.544C622.952 379.66 600.179 303.682 570.276 251.888C555.325 225.991 538.602 206.16 521.007 193.902C503.413 181.646 484.974 176.977 466.56 181.337Z" stroke="url(#paint62_linear_2129_241)"/>
<path d="M460.926 182.722C442.545 187.397 426.008 200.653 411.846 220.707C397.681 240.763 385.913 267.589 377.081 299.327C359.417 362.8 353.524 445.815 363.613 533.317C373.703 620.818 397.859 696.191 428.737 747.317C444.177 772.881 461.285 792.364 479.136 804.277C496.984 816.188 515.548 820.516 533.929 815.841C552.31 811.166 568.846 797.91 583.009 777.857C597.174 757.801 608.943 730.973 617.775 699.236C635.439 635.763 641.331 552.747 631.241 465.246C621.152 377.745 596.996 302.372 566.118 251.245C550.679 225.681 533.57 206.2 515.719 194.287C497.871 182.376 479.307 178.046 460.926 182.722Z" stroke="url(#paint63_linear_2129_241)"/>
<path d="M455.302 184.203C436.959 189.193 420.616 202.708 406.771 222.96C392.924 243.215 381.598 270.181 373.301 301.991C356.707 365.611 352.253 448.512 363.897 535.603C375.541 622.695 401.072 697.441 432.916 747.884C448.838 773.107 466.327 792.234 484.428 803.799C502.526 815.362 521.21 819.35 539.553 814.36C557.896 809.371 574.24 795.855 588.084 775.603C601.931 755.348 613.257 728.382 621.555 696.572C638.149 632.952 642.602 550.05 630.958 462.959C619.314 375.867 593.784 301.122 561.94 250.679C546.017 225.456 528.528 206.329 510.428 194.764C492.329 183.201 473.645 179.213 455.302 184.203Z" stroke="url(#paint64_linear_2129_241)"/>
<path d="M449.692 185.78C431.392 191.082 415.247 204.854 401.725 225.298C388.2 245.746 377.32 272.841 369.56 304.715C354.04 368.462 351.027 451.224 364.222 537.88C377.417 624.536 404.314 698.63 437.115 748.376C453.515 773.249 471.379 792.015 489.724 803.228C508.067 814.439 526.864 818.085 545.164 812.782C563.463 807.48 579.608 793.709 593.131 773.264C606.655 752.817 617.536 725.721 625.296 693.847C640.815 630.101 643.828 547.339 630.634 460.683C617.439 374.027 590.541 299.932 557.741 250.187C541.34 225.314 523.476 206.547 505.131 195.335C486.788 184.123 467.991 180.477 449.692 185.78Z" stroke="url(#paint65_linear_2129_241)"/>
<path d="M444.095 187.453C425.845 193.067 409.903 207.089 396.707 227.72C383.509 248.354 373.077 275.571 365.857 307.499C351.417 371.353 349.845 453.951 364.586 540.144C379.328 626.337 407.584 699.76 441.331 748.792C458.205 773.308 476.439 791.707 495.023 802.564C513.604 813.42 532.509 816.724 550.759 811.11C569.009 805.496 584.951 791.473 598.148 770.842C611.345 750.208 621.778 722.992 628.998 691.064C643.438 627.21 645.01 544.612 630.268 458.418C615.527 372.225 587.271 298.803 553.524 249.772C536.65 225.255 518.416 206.856 499.832 195.998C481.251 185.142 462.345 181.839 444.095 187.453Z" stroke="url(#paint66_linear_2129_241)"/>
<path d="M438.516 189.22C420.32 195.144 404.587 209.413 391.721 230.224C378.853 251.038 368.873 278.369 362.195 310.341C348.839 374.283 348.709 456.691 364.993 542.396C381.277 628.101 410.882 700.828 445.565 749.131C462.907 773.283 481.505 791.31 500.322 801.809C519.137 812.307 538.144 815.266 556.34 809.343C574.535 803.419 590.27 789.149 603.135 768.338C616.003 747.524 625.982 720.194 632.66 688.222C646.017 624.28 646.148 541.871 629.864 456.167C613.58 370.462 583.973 297.735 549.29 249.432C531.948 225.28 513.351 207.252 494.534 196.753C475.72 186.256 456.712 183.296 438.516 189.22Z" stroke="url(#paint67_linear_2129_241)"/>
<path d="M432.954 191.082C414.819 197.314 399.298 211.826 386.766 232.81C374.233 253.798 364.708 281.234 358.574 313.241C346.306 377.252 347.617 459.445 365.438 544.635C383.259 629.825 414.206 701.835 449.815 749.395C467.62 773.175 486.576 790.824 505.62 800.962C524.662 811.097 543.766 813.712 561.901 807.48C580.037 801.249 595.558 786.737 608.089 765.752C620.623 744.764 630.148 717.328 636.282 685.322C648.55 621.311 647.239 539.118 629.418 453.928C611.596 368.738 580.649 296.728 545.041 249.168C527.236 225.388 508.28 207.738 489.235 197.6C470.194 187.465 451.089 184.851 432.954 191.082Z" stroke="url(#paint68_linear_2129_241)"/>
<path d="M427.411 193.038C409.342 199.576 394.038 214.325 381.845 235.477C369.65 256.633 360.583 284.166 354.995 316.197C343.818 380.257 346.57 462.211 365.923 546.86C385.276 631.509 417.556 702.779 454.079 749.582C472.341 772.983 491.65 790.25 510.916 800.023C530.179 809.794 549.373 812.062 567.443 805.524C585.512 798.987 600.816 784.237 613.009 763.085C625.205 741.93 634.271 714.397 639.859 682.366C651.036 618.305 648.285 536.352 628.931 451.703C609.578 367.054 577.299 295.783 540.776 248.981C522.514 225.579 503.205 208.312 483.939 198.539C464.676 188.769 445.481 186.5 427.411 193.038Z" stroke="url(#paint69_linear_2129_241)"/>
<path d="M421.891 195.087C403.893 201.929 388.811 216.913 376.96 238.226C365.107 259.542 356.501 287.163 351.46 319.209C341.378 383.299 345.57 464.988 366.45 549.071C387.329 633.153 420.93 703.663 458.356 749.694C477.07 772.71 496.726 789.588 516.207 798.992C535.686 808.396 554.966 810.318 572.964 803.476C590.962 796.634 606.044 781.65 617.895 760.337C629.749 739.021 638.354 711.4 643.395 679.354C653.477 615.264 649.285 533.575 628.406 449.492C607.526 365.41 573.925 294.9 536.499 248.869C517.785 225.854 498.129 208.975 478.648 199.571C459.169 190.167 439.889 188.245 421.891 195.087Z" stroke="url(#paint70_linear_2129_241)"/>
<path d="M416.393 197.229C380.55 211.517 356.96 258.122 347.968 322.276C338.985 386.376 344.616 467.775 367.015 551.266C389.414 634.756 424.326 704.484 462.645 749.729C500.996 795.011 542.618 815.621 578.462 801.333C614.305 787.045 637.894 740.44 646.886 676.287C655.869 612.187 650.238 530.787 627.839 447.297C605.44 363.806 570.528 294.079 532.209 248.834C493.859 203.552 452.237 182.941 416.393 197.229Z" stroke="url(#paint71_linear_2129_241)"/>
<path d="M410.92 199.463C375.241 214.35 352.413 261.253 344.523 325.396C336.64 389.487 343.71 470.572 367.621 553.445C391.533 636.319 427.746 705.243 466.945 749.689C506.176 794.17 548.256 813.988 583.934 799.1C619.613 784.213 642.441 737.311 650.33 673.167C658.213 609.076 651.145 527.99 627.233 445.117C603.322 362.244 567.108 293.32 527.909 248.875C488.677 204.394 446.598 184.575 410.92 199.463Z" stroke="url(#paint72_linear_2129_241)"/>
<path d="M405.473 201.788C369.971 217.271 347.912 264.456 341.126 328.57C334.346 392.632 342.85 473.378 368.267 555.609C393.684 637.839 431.188 705.938 471.255 749.57C511.355 793.237 553.879 812.258 589.381 796.775C624.884 781.293 646.944 734.107 653.729 669.993C660.509 605.93 652.005 525.184 626.588 442.954C601.172 360.724 563.668 292.625 523.6 248.993C483.5 205.325 440.976 186.305 405.473 201.788Z" stroke="url(#paint73_linear_2129_241)"/>
<path d="M400.054 204.203C364.739 220.277 343.454 267.731 337.775 331.796C332.1 395.809 342.036 476.192 368.951 557.754C395.866 639.317 434.648 706.571 475.572 749.377C516.528 792.216 559.484 810.432 594.799 794.36C630.115 778.287 651.4 730.832 657.08 666.767C662.754 602.753 652.818 522.37 625.903 440.808C598.988 359.245 560.206 291.991 519.283 249.186C478.326 206.346 435.37 188.13 400.054 204.203Z" stroke="url(#paint74_linear_2129_241)"/>
<path d="M394.666 206.709C359.548 223.368 339.044 271.076 334.472 335.072C329.904 399.018 341.271 479.013 369.675 559.883C398.08 640.753 438.128 707.142 479.895 749.108C521.696 791.107 565.071 808.513 600.188 791.854C635.306 775.196 655.81 727.487 660.382 663.491C664.949 599.545 653.584 519.55 625.179 438.68C596.775 357.81 556.726 291.421 514.958 249.455C473.158 207.456 429.783 190.05 394.666 206.709Z" stroke="url(#paint75_linear_2129_241)"/>
<path d="M389.308 209.303C354.399 226.542 334.683 274.49 331.221 338.398C327.761 402.257 340.552 481.84 370.438 561.993C400.323 642.146 441.627 707.647 484.225 748.761C526.857 789.907 570.637 806.498 605.546 789.259C640.455 772.02 660.172 724.072 663.634 660.164C667.094 596.305 654.302 516.723 624.416 436.57C594.531 356.417 553.228 290.915 510.63 249.801C467.998 208.655 424.217 192.064 389.308 209.303Z" stroke="url(#paint76_linear_2129_241)"/>
<path d="M383.984 211.986C349.294 229.801 330.371 277.974 328.019 341.775C325.669 405.527 339.882 484.673 371.239 564.084C402.596 643.495 445.141 708.091 488.558 748.34C532.008 788.62 576.181 804.391 610.87 786.577C645.56 768.763 664.484 720.589 666.836 656.788C669.186 593.036 654.972 513.891 623.615 434.48C592.258 355.069 549.713 290.472 506.297 250.223C462.846 209.943 418.673 194.172 383.984 211.986Z" stroke="url(#paint77_linear_2129_241)"/>
<path d="M378.694 214.756C344.234 233.14 326.11 281.523 324.869 345.197C323.629 408.823 339.261 487.509 372.08 566.154C404.899 644.8 448.673 708.47 492.895 747.843C537.15 787.244 581.701 802.19 616.161 783.806C650.621 765.422 668.744 717.039 669.986 653.365C671.226 589.739 655.594 511.054 622.775 432.409C589.956 353.763 546.182 290.092 501.96 250.719C457.705 211.318 413.154 196.372 378.694 214.756Z" stroke="url(#paint78_linear_2129_241)"/>
<path d="M373.441 217.614C339.222 236.562 321.902 285.141 321.772 348.669C321.643 412.149 338.688 490.35 372.959 568.206C407.23 646.061 452.22 708.787 497.233 747.27C542.28 785.782 587.196 799.898 621.416 780.95C655.635 762.001 672.954 713.423 673.084 649.895C673.214 586.414 656.169 508.214 621.898 430.359C587.627 352.503 542.637 289.776 497.624 251.293C452.577 212.781 407.66 198.665 373.441 217.614Z" stroke="url(#paint79_linear_2129_241)"/>
<path d="M368.223 220.556C334.255 240.064 317.746 288.823 318.727 352.185C319.708 415.501 338.161 493.193 373.874 570.235C409.587 647.277 455.778 709.039 501.569 746.622C547.393 784.232 592.661 797.514 626.63 778.007C660.598 758.5 677.108 709.741 676.127 646.378C675.146 583.063 656.693 505.371 620.98 428.329C585.267 351.287 539.076 289.524 493.285 251.942C447.461 214.331 402.192 201.049 368.223 220.556Z" stroke="url(#paint80_linear_2129_241)"/>
<path d="M363.049 223.584C329.341 243.644 313.648 292.568 315.74 355.746C317.831 418.878 337.686 496.037 374.829 572.243C411.973 648.448 459.352 709.227 505.907 745.898C552.496 782.595 598.102 795.04 631.809 774.98C665.516 754.92 681.21 705.995 679.117 642.817C677.026 579.686 657.172 502.526 620.028 426.321C582.884 350.116 535.505 289.336 488.951 252.666C442.362 215.969 396.756 203.524 363.049 223.584Z" stroke="url(#paint81_linear_2129_241)"/>
<path d="M357.913 226.695C324.478 247.302 309.604 296.377 312.807 359.351C316.007 422.279 337.258 498.883 375.821 574.229C414.384 649.574 462.937 709.352 510.241 745.099C557.579 780.872 603.509 792.475 636.945 771.869C670.38 751.262 685.254 702.187 682.051 639.213C678.851 576.285 657.6 499.681 619.037 424.336C580.473 348.99 531.921 289.212 484.617 253.465C437.278 217.692 391.348 206.089 357.913 226.695Z" stroke="url(#paint82_linear_2129_241)"/>
<path d="M352.819 229.89C319.666 251.036 305.617 300.247 309.929 362.998C314.237 425.704 336.877 501.729 376.848 576.191C416.819 650.653 466.531 709.412 514.57 744.225C562.644 779.063 608.884 789.819 642.037 768.673C675.19 747.527 689.24 698.316 684.929 635.565C680.62 572.859 657.979 496.834 618.008 422.372C578.037 347.909 528.326 289.151 480.287 254.338C432.213 219.5 385.973 208.743 352.819 229.89Z" stroke="url(#paint83_linear_2129_241)"/>
<path d="M347.769 233.166C314.908 254.846 301.687 304.178 307.107 366.686C312.522 429.15 336.546 504.573 377.913 578.13C419.28 651.687 470.134 709.408 518.893 743.276C567.688 777.169 614.224 787.077 647.085 765.397C679.947 743.717 693.167 694.385 687.747 631.876C682.331 569.412 658.309 493.989 616.942 420.432C575.575 346.876 524.72 289.154 475.96 255.286C427.166 221.393 380.63 211.486 347.769 233.166Z" stroke="url(#paint84_linear_2129_241)"/>
<path d="M342.764 236.523C310.205 258.731 297.818 308.168 304.344 370.416C310.865 432.619 336.264 507.417 379.013 580.045C421.763 652.674 473.746 709.34 523.211 742.254C572.711 775.19 619.529 784.247 652.088 762.04C684.647 739.833 697.035 690.395 690.509 628.147C683.988 565.943 658.589 491.145 615.839 418.517C573.089 345.888 521.107 289.222 471.642 256.309C422.142 223.372 375.323 214.316 342.764 236.523Z" stroke="url(#paint85_linear_2129_241)"/>
<path d="M337.809 239.961C305.563 262.689 294.012 312.216 301.642 374.183C309.267 436.108 336.033 510.258 380.152 581.936C424.272 653.615 477.367 709.209 527.523 741.157C577.714 773.128 624.799 781.33 657.046 758.603C689.293 735.875 700.844 686.347 693.214 624.379C685.589 562.455 658.823 488.304 614.703 416.626C570.583 344.948 517.488 289.354 467.332 257.405C417.141 225.435 370.056 217.234 337.809 239.961Z" stroke="url(#paint86_linear_2129_241)"/>
<path d="M332.9 243.477C300.975 266.718 290.264 316.321 298.996 377.99C307.722 439.616 335.847 513.096 381.324 583.802C426.8 654.509 480.991 709.013 531.822 739.987C582.689 770.982 630.028 778.327 661.953 755.086C693.877 731.845 704.588 682.24 695.856 620.572C687.13 558.946 659.004 485.466 613.528 414.76C568.052 344.054 513.861 289.549 463.03 258.575C412.163 227.58 364.825 220.236 332.9 243.477Z" stroke="url(#paint87_linear_2129_241)"/>
<path d="M328.042 247.071C296.45 270.819 286.582 320.482 296.413 381.833C306.238 443.142 335.714 515.929 382.534 585.642C429.353 655.355 484.623 708.754 536.114 738.744C587.64 768.754 635.217 775.239 666.81 751.492C698.403 727.744 708.271 678.08 698.44 616.729C688.615 555.421 659.139 482.633 612.32 412.92C565.501 343.208 510.231 289.809 458.739 259.819C407.212 229.809 359.635 223.324 328.042 247.071Z" stroke="url(#paint88_linear_2129_241)"/>
<path d="M323.237 250.742C291.986 274.988 282.964 324.698 293.891 385.713C304.811 446.686 335.63 518.758 383.778 587.456C431.925 656.154 488.257 708.431 540.392 737.427C592.564 766.443 640.366 772.066 671.617 747.82C702.868 723.573 711.89 673.864 700.962 612.85C690.042 551.877 659.224 479.805 611.076 411.107C562.929 342.409 506.596 290.131 454.461 261.135C402.29 232.119 354.489 226.496 323.237 250.742Z" stroke="url(#paint89_linear_2129_241)"/>
<path d="M318.485 254.489C287.585 279.227 279.412 328.966 291.433 389.626C303.445 450.245 335.596 521.58 385.057 589.243C434.518 656.905 491.896 708.044 544.66 736.038C597.46 764.052 645.471 768.812 676.371 744.074C707.272 719.336 715.444 669.597 703.423 608.937C691.411 548.318 659.26 476.983 609.799 409.32C560.338 341.658 502.96 290.518 450.196 262.524C397.396 234.511 349.385 229.751 318.485 254.489Z" stroke="url(#paint90_linear_2129_241)"/>
<path d="M313.787 258.31C283.247 283.532 275.925 333.286 289.035 393.573C302.136 453.819 335.61 524.396 386.37 591.002C437.13 657.608 495.536 707.594 548.911 734.578C602.324 761.58 650.53 765.474 681.07 740.252C711.609 715.03 718.93 665.277 705.82 604.99C692.72 544.744 659.246 474.167 608.486 407.561C557.726 340.955 499.32 290.969 445.944 263.985C392.532 236.983 344.326 233.088 313.787 258.31Z" stroke="url(#paint91_linear_2129_241)"/>
<path d="M309.143 262.205C278.973 287.903 272.506 337.656 286.701 397.551C300.886 457.406 335.673 527.203 387.716 592.733C439.759 658.263 499.175 707.08 553.147 733.045C607.156 759.027 655.542 762.056 685.712 736.358C715.882 710.659 722.348 660.906 708.154 601.011C693.968 541.156 659.182 471.359 607.139 405.83C555.095 340.3 495.679 291.482 441.707 265.517C387.699 239.535 339.313 236.506 309.143 262.205Z" stroke="url(#paint92_linear_2129_241)"/>
<path d="M304.558 266.172C274.768 292.339 269.156 342.076 284.432 401.561C299.697 461.007 335.786 530.003 389.097 594.436C442.407 658.869 502.815 706.503 557.367 731.441C611.955 756.396 660.507 758.558 690.297 732.391C720.088 706.224 725.7 656.487 710.424 597.001C695.158 537.556 659.07 468.56 605.759 404.127C552.448 339.693 492.04 292.059 437.489 267.121C382.9 242.167 334.349 240.005 304.558 266.172Z" stroke="url(#paint93_linear_2129_241)"/>
<path d="M300.032 270.21C270.63 296.837 265.876 346.543 282.228 405.601C298.569 464.619 335.948 532.793 390.51 596.11C445.072 659.428 506.454 705.863 561.568 729.767C616.72 753.687 665.422 754.981 694.824 728.354C724.226 701.726 728.981 652.02 712.628 592.962C696.287 533.944 658.908 465.771 604.346 402.454C549.785 339.136 488.402 292.7 433.288 268.796C378.136 244.877 329.434 243.582 300.032 270.21Z" stroke="url(#paint94_linear_2129_241)"/>
<path d="M295.564 274.317C266.56 301.397 262.664 351.058 280.088 409.67C297.499 468.243 336.158 535.572 391.955 597.754C447.751 659.936 510.088 705.161 565.749 728.023C621.447 750.9 670.286 751.326 699.29 724.246C728.295 697.167 732.191 647.506 714.767 588.894C697.355 530.321 658.696 462.991 602.899 400.809C547.103 338.627 484.767 293.403 429.106 270.541C373.408 247.663 324.569 247.237 295.564 274.317Z" stroke="url(#paint95_linear_2129_241)"/>
<path d="M291.159 278.493C262.561 306.017 259.526 355.616 278.015 413.764C296.492 471.874 336.419 538.341 393.433 599.369C450.447 660.396 513.72 704.394 569.91 726.208C626.137 748.036 675.097 747.594 703.695 720.07C732.293 692.546 735.329 642.947 716.84 584.799C698.363 526.689 658.436 460.222 601.422 399.194C544.408 338.167 481.135 294.168 424.945 272.355C368.717 250.527 319.758 250.969 291.159 278.493Z" stroke="url(#paint96_linear_2129_241)"/>
<path d="M286.817 282.736C258.634 310.696 256.459 360.219 276.009 417.886C295.546 475.515 336.729 541.097 394.943 600.952C453.157 660.807 517.346 703.566 574.048 724.325C630.788 745.097 679.854 743.786 708.037 715.827C736.221 687.867 738.395 638.344 718.846 580.677C699.309 523.048 658.127 457.465 599.913 397.611C541.698 337.756 477.509 294.997 420.806 274.238C364.066 253.466 315.001 254.776 286.817 282.736Z" stroke="url(#paint97_linear_2129_241)"/>
<path d="M282.539 287.044C254.779 315.431 253.466 364.862 274.07 422.031C294.66 479.161 337.086 543.841 396.483 602.505C455.879 661.168 520.966 702.675 578.164 722.372C635.399 742.082 684.556 739.904 712.316 711.517C740.075 683.131 741.388 633.699 720.784 576.531C700.193 519.4 657.768 454.721 598.371 396.057C538.974 337.393 473.887 295.887 416.69 276.19C359.455 256.48 310.299 258.658 282.539 287.044Z" stroke="url(#paint98_linear_2129_241)"/>
<path d="M278.327 291.418C250.999 320.223 250.548 369.549 272.2 426.201C293.838 482.816 337.494 546.572 398.056 604.026C458.617 661.481 524.581 701.723 582.255 720.353C639.968 738.995 689.201 735.949 716.529 707.144C743.857 678.339 744.308 629.014 722.656 572.362C701.018 515.747 657.362 451.991 596.8 394.536C536.239 337.081 470.275 296.84 412.601 278.21C354.887 259.568 305.654 262.613 278.327 291.418Z" stroke="url(#paint99_linear_2129_241)"/>
</g>
<defs>
<linearGradient id="paint0_linear_2129_241" x1="571.94" y1="601.213" x2="414.273" y2="404.27" gradientUnits="userSpaceOnUse">
<stop stop-color="#A4CFFF"/>
<stop offset="1" stop-color="#077BCF"/>
</linearGradient>
<linearGradient id="paint1_linear_2129_241" x1="573.897" y1="599.622" x2="413.349" y2="405.227" gradientUnits="userSpaceOnUse">
<stop stop-color="#A4CFFF"/>
<stop offset="1" stop-color="#077BCF"/>
</linearGradient>
<linearGradient id="paint2_linear_2129_241" x1="575.829" y1="598" x2="412.435" y2="406.177" gradientUnits="userSpaceOnUse">
<stop stop-color="#A4CFFF"/>
<stop offset="1" stop-color="#077BCF"/>
</linearGradient>
<linearGradient id="paint3_linear_2129_241" x1="577.738" y1="596.349" x2="411.528" y2="407.123" gradientUnits="userSpaceOnUse">
<stop stop-color="#A4CFFF"/>
<stop offset="1" stop-color="#077BCF"/>
</linearGradient>
<linearGradient id="paint4_linear_2129_241" x1="579.623" y1="594.668" x2="410.629" y2="408.064" gradientUnits="userSpaceOnUse">
<stop stop-color="#A4CFFF"/>
<stop offset="1" stop-color="#077BCF"/>
</linearGradient>
<linearGradient id="paint5_linear_2129_241" x1="581.484" y1="592.958" x2="409.736" y2="409.001" gradientUnits="userSpaceOnUse">
<stop stop-color="#A4CFFF"/>
<stop offset="1" stop-color="#077BCF"/>
</linearGradient>
<linearGradient id="paint6_linear_2129_241" x1="583.318" y1="591.219" x2="408.846" y2="409.935" gradientUnits="userSpaceOnUse">
<stop stop-color="#A4CFFF"/>
<stop offset="1" stop-color="#077BCF"/>
</linearGradient>
<linearGradient id="paint7_linear_2129_241" x1="585.127" y1="589.452" x2="407.96" y2="410.867" gradientUnits="userSpaceOnUse">
<stop stop-color="#A4CFFF"/>
<stop offset="1" stop-color="#077BCF"/>
</linearGradient>
<linearGradient id="paint8_linear_2129_241" x1="586.908" y1="587.657" x2="407.076" y2="411.797" gradientUnits="userSpaceOnUse">
<stop stop-color="#A4CFFF"/>
<stop offset="1" stop-color="#077BCF"/>
</linearGradient>
<linearGradient id="paint9_linear_2129_241" x1="588.661" y1="585.836" x2="406.193" y2="412.727" gradientUnits="userSpaceOnUse">
<stop stop-color="#A4CFFF"/>
<stop offset="1" stop-color="#077BCF"/>
</linearGradient>
<linearGradient id="paint10_linear_2129_241" x1="590.388" y1="583.988" x2="405.311" y2="413.657" gradientUnits="userSpaceOnUse">
<stop stop-color="#A4CFFF"/>
<stop offset="1" stop-color="#077BCF"/>
</linearGradient>
<linearGradient id="paint11_linear_2129_241" x1="592.086" y1="582.115" x2="404.428" y2="414.589" gradientUnits="userSpaceOnUse">
<stop stop-color="#A4CFFF"/>
<stop offset="1" stop-color="#077BCF"/>
</linearGradient>
<linearGradient id="paint12_linear_2129_241" x1="593.756" y1="580.217" x2="403.545" y2="415.523" gradientUnits="userSpaceOnUse">
<stop stop-color="#A4CFFF"/>
<stop offset="1" stop-color="#077BCF"/>
</linearGradient>
<linearGradient id="paint13_linear_2129_241" x1="595.396" y1="578.293" x2="402.66" y2="416.46" gradientUnits="userSpaceOnUse">
<stop stop-color="#A4CFFF"/>
<stop offset="1" stop-color="#077BCF"/>
</linearGradient>
<linearGradient id="paint14_linear_2129_241" x1="597.005" y1="576.346" x2="401.77" y2="417.402" gradientUnits="userSpaceOnUse">
<stop stop-color="#A4CFFF"/>
<stop offset="1" stop-color="#077BCF"/>
</linearGradient>
<linearGradient id="paint15_linear_2129_241" x1="598.585" y1="574.375" x2="400.877" y2="418.35" gradientUnits="userSpaceOnUse">
<stop stop-color="#A4CFFF"/>
<stop offset="1" stop-color="#077BCF"/>
</linearGradient>
<linearGradient id="paint16_linear_2129_241" x1="600.134" y1="572.381" x2="399.98" y2="419.304" gradientUnits="userSpaceOnUse">
<stop stop-color="#A4CFFF"/>
<stop offset="1" stop-color="#077BCF"/>
</linearGradient>
<linearGradient id="paint17_linear_2129_241" x1="601.651" y1="570.365" x2="399.079" y2="420.267" gradientUnits="userSpaceOnUse">
<stop stop-color="#A4CFFF"/>
<stop offset="1" stop-color="#077BCF"/>
</linearGradient>
<linearGradient id="paint18_linear_2129_241" x1="603.138" y1="568.328" x2="398.173" y2="421.239" gradientUnits="userSpaceOnUse">
<stop stop-color="#A4CFFF"/>
<stop offset="1" stop-color="#077BCF"/>
</linearGradient>
<linearGradient id="paint19_linear_2129_241" x1="604.591" y1="566.269" x2="397.261" y2="422.222" gradientUnits="userSpaceOnUse">
<stop stop-color="#A4CFFF"/>
<stop offset="1" stop-color="#077BCF"/>
</linearGradient>
<linearGradient id="paint20_linear_2129_241" x1="606.012" y1="564.19" x2="396.343" y2="423.217" gradientUnits="userSpaceOnUse">
<stop stop-color="#A4CFFF"/>
<stop offset="1" stop-color="#077BCF"/>
</linearGradient>
<linearGradient id="paint21_linear_2129_241" x1="607.4" y1="562.091" x2="395.419" y2="424.226" gradientUnits="userSpaceOnUse">
<stop stop-color="#A4CFFF"/>
<stop offset="1" stop-color="#077BCF"/>
</linearGradient>
<linearGradient id="paint22_linear_2129_241" x1="608.755" y1="559.973" x2="394.489" y2="425.249" gradientUnits="userSpaceOnUse">
<stop stop-color="#A4CFFF"/>
<stop offset="1" stop-color="#077BCF"/>
</linearGradient>
<linearGradient id="paint23_linear_2129_241" x1="610.076" y1="557.837" x2="393.552" y2="426.288" gradientUnits="userSpaceOnUse">
<stop stop-color="#A4CFFF"/>
<stop offset="1" stop-color="#077BCF"/>
</linearGradient>
<linearGradient id="paint24_linear_2129_241" x1="611.362" y1="555.683" x2="392.607" y2="427.345" gradientUnits="userSpaceOnUse">
<stop stop-color="#A4CFFF"/>
<stop offset="1" stop-color="#077BCF"/>
</linearGradient>
<linearGradient id="paint25_linear_2129_241" x1="612.613" y1="553.511" x2="391.657" y2="428.421" gradientUnits="userSpaceOnUse">
<stop stop-color="#A4CFFF"/>
<stop offset="1" stop-color="#077BCF"/>
</linearGradient>
<linearGradient id="paint26_linear_2129_241" x1="613.829" y1="551.323" x2="390.699" y2="429.518" gradientUnits="userSpaceOnUse">
<stop stop-color="#A4CFFF"/>
<stop offset="1" stop-color="#077BCF"/>
</linearGradient>
<linearGradient id="paint27_linear_2129_241" x1="615.01" y1="549.12" x2="389.736" y2="430.637" gradientUnits="userSpaceOnUse">
<stop stop-color="#A4CFFF"/>
<stop offset="1" stop-color="#077BCF"/>
</linearGradient>
<linearGradient id="paint28_linear_2129_241" x1="616.156" y1="546.901" x2="388.766" y2="431.779" gradientUnits="userSpaceOnUse">
<stop stop-color="#A4CFFF"/>
<stop offset="1" stop-color="#077BCF"/>
</linearGradient>
<linearGradient id="paint29_linear_2129_241" x1="617.264" y1="544.667" x2="387.79" y2="432.946" gradientUnits="userSpaceOnUse">
<stop stop-color="#A4CFFF"/>
<stop offset="1" stop-color="#077BCF"/>
</linearGradient>
<linearGradient id="paint30_linear_2129_241" x1="618.337" y1="542.42" x2="386.808" y2="434.139" gradientUnits="userSpaceOnUse">
<stop stop-color="#A4CFFF"/>
<stop offset="1" stop-color="#077BCF"/>
</linearGradient>
<linearGradient id="paint31_linear_2129_241" x1="619.373" y1="540.159" x2="385.822" y2="435.361" gradientUnits="userSpaceOnUse">
<stop stop-color="#A4CFFF"/>
<stop offset="1" stop-color="#077BCF"/>
</linearGradient>
<linearGradient id="paint32_linear_2129_241" x1="620.372" y1="537.887" x2="384.831" y2="436.612" gradientUnits="userSpaceOnUse">
<stop stop-color="#A4CFFF"/>
<stop offset="1" stop-color="#077BCF"/>
</linearGradient>
<linearGradient id="paint33_linear_2129_241" x1="621.332" y1="535.602" x2="383.835" y2="437.893" gradientUnits="userSpaceOnUse">
<stop stop-color="#A4CFFF"/>
<stop offset="1" stop-color="#077BCF"/>
</linearGradient>
<linearGradient id="paint34_linear_2129_241" x1="622.256" y1="533.306" x2="382.837" y2="439.208" gradientUnits="userSpaceOnUse">
<stop stop-color="#A4CFFF"/>
<stop offset="1" stop-color="#077BCF"/>
</linearGradient>
<linearGradient id="paint35_linear_2129_241" x1="623.141" y1="531" x2="381.836" y2="440.556" gradientUnits="userSpaceOnUse">
<stop stop-color="#A4CFFF"/>
<stop offset="1" stop-color="#077BCF"/>
</linearGradient>
<linearGradient id="paint36_linear_2129_241" x1="623.989" y1="528.684" x2="380.835" y2="441.939" gradientUnits="userSpaceOnUse">
<stop stop-color="#A4CFFF"/>
<stop offset="1" stop-color="#077BCF"/>
</linearGradient>
<linearGradient id="paint37_linear_2129_241" x1="624.798" y1="526.359" x2="379.833" y2="443.359" gradientUnits="userSpaceOnUse">
<stop stop-color="#A4CFFF"/>
<stop offset="1" stop-color="#077BCF"/>
</linearGradient>
<linearGradient id="paint38_linear_2129_241" x1="625.566" y1="524.026" x2="378.829" y2="444.817" gradientUnits="userSpaceOnUse">
<stop stop-color="#A4CFFF"/>
<stop offset="1" stop-color="#077BCF"/>
</linearGradient>
<linearGradient id="paint39_linear_2129_241" x1="626.297" y1="521.686" x2="377.829" y2="446.315" gradientUnits="userSpaceOnUse">
<stop stop-color="#A4CFFF"/>
<stop offset="1" stop-color="#077BCF"/>
</linearGradient>
<linearGradient id="paint40_linear_2129_241" x1="626.988" y1="519.339" x2="376.831" y2="447.853" gradientUnits="userSpaceOnUse">
<stop stop-color="#A4CFFF"/>
<stop offset="1" stop-color="#077BCF"/>
</linearGradient>
<linearGradient id="paint41_linear_2129_241" x1="627.64" y1="516.985" x2="375.838" y2="449.433" gradientUnits="userSpaceOnUse">
<stop stop-color="#A4CFFF"/>
<stop offset="1" stop-color="#077BCF"/>
</linearGradient>
<linearGradient id="paint42_linear_2129_241" x1="628.253" y1="514.626" x2="374.851" y2="451.057" gradientUnits="userSpaceOnUse">
<stop stop-color="#A4CFFF"/>
<stop offset="1" stop-color="#077BCF"/>
</linearGradient>
<linearGradient id="paint43_linear_2129_241" x1="628.824" y1="512.263" x2="373.869" y2="452.725" gradientUnits="userSpaceOnUse">
<stop stop-color="#A4CFFF"/>
<stop offset="1" stop-color="#077BCF"/>
</linearGradient>
<linearGradient id="paint44_linear_2129_241" x1="629.357" y1="509.895" x2="372.899" y2="454.439" gradientUnits="userSpaceOnUse">
<stop stop-color="#A4CFFF"/>
<stop offset="1" stop-color="#077BCF"/>
</linearGradient>
<linearGradient id="paint45_linear_2129_241" x1="629.849" y1="507.525" x2="371.938" y2="456.2" gradientUnits="userSpaceOnUse">
<stop stop-color="#A4CFFF"/>
<stop offset="1" stop-color="#077BCF"/>
</linearGradient>
<linearGradient id="paint46_linear_2129_241" x1="630.302" y1="505.151" x2="370.99" y2="458.008" gradientUnits="userSpaceOnUse">
<stop stop-color="#A4CFFF"/>
<stop offset="1" stop-color="#077BCF"/>
</linearGradient>
<linearGradient id="paint47_linear_2129_241" x1="630.712" y1="502.776" x2="370.055" y2="459.865" gradientUnits="userSpaceOnUse">
<stop stop-color="#A4CFFF"/>
<stop offset="1" stop-color="#077BCF"/>
</linearGradient>
<linearGradient id="paint48_linear_2129_241" x1="631.083" y1="500.4" x2="369.138" y2="461.771" gradientUnits="userSpaceOnUse">
<stop stop-color="#A4CFFF"/>
<stop offset="1" stop-color="#077BCF"/>
</linearGradient>
<linearGradient id="paint49_linear_2129_241" x1="631.414" y1="498.024" x2="368.239" y2="463.728" gradientUnits="userSpaceOnUse">
<stop stop-color="#A4CFFF"/>
<stop offset="1" stop-color="#077BCF"/>
</linearGradient>
<linearGradient id="paint50_linear_2129_241" x1="631.703" y1="495.648" x2="367.36" y2="465.735" gradientUnits="userSpaceOnUse">
<stop stop-color="#A4CFFF"/>
<stop offset="1" stop-color="#077BCF"/>
</linearGradient>
<linearGradient id="paint51_linear_2129_241" x1="631.95" y1="493.273" x2="366.501" y2="467.795" gradientUnits="userSpaceOnUse">
<stop stop-color="#A4CFFF"/>
<stop offset="1" stop-color="#077BCF"/>
</linearGradient>
<linearGradient id="paint52_linear_2129_241" x1="632.16" y1="490.9" x2="365.672" y2="469.906" gradientUnits="userSpaceOnUse">
<stop stop-color="#A4CFFF"/>
<stop offset="1" stop-color="#077BCF"/>
</linearGradient>
<linearGradient id="paint53_linear_2129_241" x1="632.325" y1="488.529" x2="364.866" y2="472.069" gradientUnits="userSpaceOnUse">
<stop stop-color="#A4CFFF"/>
<stop offset="1" stop-color="#077BCF"/>
</linearGradient>
<linearGradient id="paint54_linear_2129_241" x1="632.451" y1="486.162" x2="364.093" y2="474.285" gradientUnits="userSpaceOnUse">
<stop stop-color="#A4CFFF"/>
<stop offset="1" stop-color="#077BCF"/>
</linearGradient>
<linearGradient id="paint55_linear_2129_241" x1="632.534" y1="483.799" x2="363.349" y2="476.555" gradientUnits="userSpaceOnUse">
<stop stop-color="#A4CFFF"/>
<stop offset="1" stop-color="#077BCF"/>
</linearGradient>
<linearGradient id="paint56_linear_2129_241" x1="632.578" y1="481.441" x2="362.642" y2="478.877" gradientUnits="userSpaceOnUse">
<stop stop-color="#A4CFFF"/>
<stop offset="1" stop-color="#077BCF"/>
</linearGradient>
<linearGradient id="paint57_linear_2129_241" x1="632.578" y1="479.087" x2="361.969" y2="481.251" gradientUnits="userSpaceOnUse">
<stop stop-color="#A4CFFF"/>
<stop offset="1" stop-color="#077BCF"/>
</linearGradient>
<linearGradient id="paint58_linear_2129_241" x1="632.54" y1="476.741" x2="361.34" y2="483.679" gradientUnits="userSpaceOnUse">
<stop stop-color="#A4CFFF"/>
<stop offset="1" stop-color="#077BCF"/>
</linearGradient>
<linearGradient id="paint59_linear_2129_241" x1="632.459" y1="474.4" x2="360.752" y2="486.158" gradientUnits="userSpaceOnUse">
<stop stop-color="#A4CFFF"/>
<stop offset="1" stop-color="#077BCF"/>
</linearGradient>
<linearGradient id="paint60_linear_2129_241" x1="632.338" y1="472.068" x2="360.209" y2="488.689" gradientUnits="userSpaceOnUse">
<stop stop-color="#A4CFFF"/>
<stop offset="1" stop-color="#077BCF"/>
</linearGradient>
<linearGradient id="paint61_linear_2129_241" x1="632.174" y1="469.744" x2="359.714" y2="491.271" gradientUnits="userSpaceOnUse">
<stop stop-color="#A4CFFF"/>
<stop offset="1" stop-color="#077BCF"/>
</linearGradient>
<linearGradient id="paint62_linear_2129_241" x1="631.971" y1="467.428" x2="359.27" y2="493.903" gradientUnits="userSpaceOnUse">
<stop stop-color="#A4CFFF"/>
<stop offset="1" stop-color="#077BCF"/>
</linearGradient>
<linearGradient id="paint63_linear_2129_241" x1="631.726" y1="465.123" x2="358.879" y2="496.584" gradientUnits="userSpaceOnUse">
<stop stop-color="#A4CFFF"/>
<stop offset="1" stop-color="#077BCF"/>
</linearGradient>
<linearGradient id="paint64_linear_2129_241" x1="631.441" y1="462.828" x2="358.545" y2="499.313" gradientUnits="userSpaceOnUse">
<stop stop-color="#A4CFFF"/>
<stop offset="1" stop-color="#077BCF"/>
</linearGradient>
<linearGradient id="paint65_linear_2129_241" x1="631.114" y1="460.544" x2="358.27" y2="502.089" gradientUnits="userSpaceOnUse">
<stop stop-color="#A4CFFF"/>
<stop offset="1" stop-color="#077BCF"/>
</linearGradient>
<linearGradient id="paint66_linear_2129_241" x1="630.746" y1="458.271" x2="358.057" y2="504.909" gradientUnits="userSpaceOnUse">
<stop stop-color="#A4CFFF"/>
<stop offset="1" stop-color="#077BCF"/>
</linearGradient>
<linearGradient id="paint67_linear_2129_241" x1="630.339" y1="456.012" x2="357.909" y2="507.773" gradientUnits="userSpaceOnUse">
<stop stop-color="#A4CFFF"/>
<stop offset="1" stop-color="#077BCF"/>
</linearGradient>
<linearGradient id="paint68_linear_2129_241" x1="629.89" y1="453.765" x2="357.827" y2="510.679" gradientUnits="userSpaceOnUse">
<stop stop-color="#A4CFFF"/>
<stop offset="1" stop-color="#077BCF"/>
</linearGradient>
<linearGradient id="paint69_linear_2129_241" x1="629.402" y1="451.532" x2="357.816" y2="513.625" gradientUnits="userSpaceOnUse">
<stop stop-color="#A4CFFF"/>
<stop offset="1" stop-color="#077BCF"/>
</linearGradient>
<linearGradient id="paint70_linear_2129_241" x1="628.873" y1="449.314" x2="357.877" y2="516.607" gradientUnits="userSpaceOnUse">
<stop stop-color="#A4CFFF"/>
<stop offset="1" stop-color="#077BCF"/>
</linearGradient>
<linearGradient id="paint71_linear_2129_241" x1="628.303" y1="447.112" x2="358.012" y2="519.625" gradientUnits="userSpaceOnUse">
<stop stop-color="#A4CFFF"/>
<stop offset="1" stop-color="#077BCF"/>
</linearGradient>
<linearGradient id="paint72_linear_2129_241" x1="627.695" y1="444.925" x2="358.226" y2="522.675" gradientUnits="userSpaceOnUse">
<stop stop-color="#A4CFFF"/>
<stop offset="1" stop-color="#077BCF"/>
</linearGradient>
<linearGradient id="paint73_linear_2129_241" x1="627.047" y1="442.754" x2="358.519" y2="525.755" gradientUnits="userSpaceOnUse">
<stop stop-color="#A4CFFF"/>
<stop offset="1" stop-color="#077BCF"/>
</linearGradient>
<linearGradient id="paint74_linear_2129_241" x1="626.358" y1="440.601" x2="358.893" y2="528.861" gradientUnits="userSpaceOnUse">
<stop stop-color="#A4CFFF"/>
<stop offset="1" stop-color="#077BCF"/>
</linearGradient>
<linearGradient id="paint75_linear_2129_241" x1="625.631" y1="438.465" x2="359.352" y2="531.992" gradientUnits="userSpaceOnUse">
<stop stop-color="#A4CFFF"/>
<stop offset="1" stop-color="#077BCF"/>
</linearGradient>
<linearGradient id="paint76_linear_2129_241" x1="624.865" y1="436.349" x2="359.896" y2="535.143" gradientUnits="userSpaceOnUse">
<stop stop-color="#A4CFFF"/>
<stop offset="1" stop-color="#077BCF"/>
</linearGradient>
<linearGradient id="paint77_linear_2129_241" x1="624.06" y1="434.251" x2="360.528" y2="538.311" gradientUnits="userSpaceOnUse">
<stop stop-color="#A4CFFF"/>
<stop offset="1" stop-color="#077BCF"/>
</linearGradient>
<linearGradient id="paint78_linear_2129_241" x1="623.216" y1="432.173" x2="361.249" y2="541.493" gradientUnits="userSpaceOnUse">
<stop stop-color="#A4CFFF"/>
<stop offset="1" stop-color="#077BCF"/>
</linearGradient>
<linearGradient id="paint79_linear_2129_241" x1="622.335" y1="430.116" x2="362.062" y2="544.686" gradientUnits="userSpaceOnUse">
<stop stop-color="#A4CFFF"/>
<stop offset="1" stop-color="#077BCF"/>
</linearGradient>
<linearGradient id="paint80_linear_2129_241" x1="621.414" y1="428.08" x2="362.964" y2="547.884" gradientUnits="userSpaceOnUse">
<stop stop-color="#A4CFFF"/>
<stop offset="1" stop-color="#077BCF"/>
</linearGradient>
<linearGradient id="paint81_linear_2129_241" x1="620.458" y1="426.065" x2="363.962" y2="551.085" gradientUnits="userSpaceOnUse">
<stop stop-color="#A4CFFF"/>
<stop offset="1" stop-color="#077BCF"/>
</linearGradient>
<linearGradient id="paint82_linear_2129_241" x1="619.462" y1="424.073" x2="365.053" y2="554.285" gradientUnits="userSpaceOnUse">
<stop stop-color="#A4CFFF"/>
<stop offset="1" stop-color="#077BCF"/>
</linearGradient>
<linearGradient id="paint83_linear_2129_241" x1="618.429" y1="422.103" x2="366.238" y2="557.479" gradientUnits="userSpaceOnUse">
<stop stop-color="#A4CFFF"/>
<stop offset="1" stop-color="#077BCF"/>
</linearGradient>
<linearGradient id="paint84_linear_2129_241" x1="617.359" y1="420.157" x2="367.517" y2="560.663" gradientUnits="userSpaceOnUse">
<stop stop-color="#A4CFFF"/>
<stop offset="1" stop-color="#077BCF"/>
</linearGradient>
<linearGradient id="paint85_linear_2129_241" x1="616.252" y1="418.235" x2="368.892" y2="563.834" gradientUnits="userSpaceOnUse">
<stop stop-color="#A4CFFF"/>
<stop offset="1" stop-color="#077BCF"/>
</linearGradient>
<linearGradient id="paint86_linear_2129_241" x1="615.112" y1="416.338" x2="370.364" y2="566.986" gradientUnits="userSpaceOnUse">
<stop stop-color="#A4CFFF"/>
<stop offset="1" stop-color="#077BCF"/>
</linearGradient>
<linearGradient id="paint87_linear_2129_241" x1="613.932" y1="414.466" x2="371.928" y2="570.116" gradientUnits="userSpaceOnUse">
<stop stop-color="#A4CFFF"/>
<stop offset="1" stop-color="#077BCF"/>
</linearGradient>
<linearGradient id="paint88_linear_2129_241" x1="612.719" y1="412.62" x2="373.589" y2="573.219" gradientUnits="userSpaceOnUse">
<stop stop-color="#A4CFFF"/>
<stop offset="1" stop-color="#077BCF"/>
</linearGradient>
<linearGradient id="paint89_linear_2129_241" x1="611.471" y1="410.8" x2="375.343" y2="576.292" gradientUnits="userSpaceOnUse">
<stop stop-color="#A4CFFF"/>
<stop offset="1" stop-color="#077BCF"/>
</linearGradient>
<linearGradient id="paint90_linear_2129_241" x1="610.189" y1="409.008" x2="377.192" y2="579.329" gradientUnits="userSpaceOnUse">
<stop stop-color="#A4CFFF"/>
<stop offset="1" stop-color="#077BCF"/>
</linearGradient>
<linearGradient id="paint91_linear_2129_241" x1="608.871" y1="407.243" x2="379.13" y2="582.326" gradientUnits="userSpaceOnUse">
<stop stop-color="#A4CFFF"/>
<stop offset="1" stop-color="#077BCF"/>
</linearGradient>
<linearGradient id="paint92_linear_2129_241" x1="607.519" y1="405.505" x2="381.158" y2="585.279" gradientUnits="userSpaceOnUse">
<stop stop-color="#A4CFFF"/>
<stop offset="1" stop-color="#077BCF"/>
</linearGradient>
<linearGradient id="paint93_linear_2129_241" x1="606.135" y1="403.797" x2="383.276" y2="588.185" gradientUnits="userSpaceOnUse">
<stop stop-color="#A4CFFF"/>
<stop offset="1" stop-color="#077BCF"/>
</linearGradient>
<linearGradient id="paint94_linear_2129_241" x1="604.717" y1="402.118" x2="385.48" y2="591.039" gradientUnits="userSpaceOnUse">
<stop stop-color="#A4CFFF"/>
<stop offset="1" stop-color="#077BCF"/>
</linearGradient>
<linearGradient id="paint95_linear_2129_241" x1="603.265" y1="400.468" x2="387.767" y2="593.836" gradientUnits="userSpaceOnUse">
<stop stop-color="#A4CFFF"/>
<stop offset="1" stop-color="#077BCF"/>
</linearGradient>
<linearGradient id="paint96_linear_2129_241" x1="601.782" y1="398.847" x2="390.137" y2="596.573" gradientUnits="userSpaceOnUse">
<stop stop-color="#A4CFFF"/>
<stop offset="1" stop-color="#077BCF"/>
</linearGradient>
<linearGradient id="paint97_linear_2129_241" x1="600.267" y1="397.258" x2="392.586" y2="599.247" gradientUnits="userSpaceOnUse">
<stop stop-color="#A4CFFF"/>
<stop offset="1" stop-color="#077BCF"/>
</linearGradient>
<linearGradient id="paint98_linear_2129_241" x1="598.721" y1="395.7" x2="395.111" y2="601.853" gradientUnits="userSpaceOnUse">
<stop stop-color="#A4CFFF"/>
<stop offset="1" stop-color="#077BCF"/>
</linearGradient>
<linearGradient id="paint99_linear_2129_241" x1="597.144" y1="394.173" x2="397.711" y2="604.389" gradientUnits="userSpaceOnUse">
<stop stop-color="#A4CFFF"/>
<stop offset="1" stop-color="#077BCF"/>
</linearGradient>
</defs>
</svg>
